<mxfile host="app.diagrams.net" agent="Mozilla/5.0 (Windows NT 10.0; Win64; x64) AppleWebKit/537.36 (KHTML, like Gecko) Chrome/131.0.0.0 Safari/537.36" version="26.0.4">
  <diagram name="Страница — 1" id="B7r4_L_ZDrQJOu4fwcXL">
    <mxGraphModel dx="3873" dy="2087" grid="1" gridSize="10" guides="1" tooltips="1" connect="1" arrows="1" fold="1" page="1" pageScale="1" pageWidth="827" pageHeight="1169" math="0" shadow="0">
      <root>
        <mxCell id="0" />
        <mxCell id="1" parent="0" />
        <mxCell id="TRrzErzz80BEs_K_XsTW-1" value="ManufacturingManager" style="swimlane;fontStyle=0;childLayout=stackLayout;horizontal=1;startSize=30;horizontalStack=0;resizeParent=1;resizeParentMax=0;resizeLast=0;collapsible=1;marginBottom=0;whiteSpace=wrap;html=1;" parent="1" vertex="1">
          <mxGeometry x="-310" y="20" width="170" height="120" as="geometry" />
        </mxCell>
        <mxCell id="TRrzErzz80BEs_K_XsTW-2" value="monitorProduction()" style="text;strokeColor=none;fillColor=none;align=left;verticalAlign=middle;spacingLeft=4;spacingRight=4;overflow=hidden;points=[[0,0.5],[1,0.5]];portConstraint=eastwest;rotatable=0;whiteSpace=wrap;html=1;" parent="TRrzErzz80BEs_K_XsTW-1" vertex="1">
          <mxGeometry y="30" width="170" height="30" as="geometry" />
        </mxCell>
        <mxCell id="TRrzErzz80BEs_K_XsTW-3" value="analyzeProductionMetrics()" style="text;strokeColor=none;fillColor=none;align=left;verticalAlign=middle;spacingLeft=4;spacingRight=4;overflow=hidden;points=[[0,0.5],[1,0.5]];portConstraint=eastwest;rotatable=0;whiteSpace=wrap;html=1;" parent="TRrzErzz80BEs_K_XsTW-1" vertex="1">
          <mxGeometry y="60" width="170" height="30" as="geometry" />
        </mxCell>
        <mxCell id="TRrzErzz80BEs_K_XsTW-4" value="optimizeProduction()" style="text;strokeColor=none;fillColor=none;align=left;verticalAlign=middle;spacingLeft=4;spacingRight=4;overflow=hidden;points=[[0,0.5],[1,0.5]];portConstraint=eastwest;rotatable=0;whiteSpace=wrap;html=1;" parent="TRrzErzz80BEs_K_XsTW-1" vertex="1">
          <mxGeometry y="90" width="170" height="30" as="geometry" />
        </mxCell>
        <mxCell id="TRrzErzz80BEs_K_XsTW-71" style="edgeStyle=orthogonalEdgeStyle;rounded=0;orthogonalLoop=1;jettySize=auto;html=1;entryX=1;entryY=0.5;entryDx=0;entryDy=0;endArrow=none;endFill=0;" parent="1" source="TRrzErzz80BEs_K_XsTW-5" target="TRrzErzz80BEs_K_XsTW-33" edge="1">
          <mxGeometry relative="1" as="geometry" />
        </mxCell>
        <mxCell id="TRrzErzz80BEs_K_XsTW-5" value="LogisticsManager" style="swimlane;fontStyle=0;childLayout=stackLayout;horizontal=1;startSize=30;horizontalStack=0;resizeParent=1;resizeParentMax=0;resizeLast=0;collapsible=1;marginBottom=0;whiteSpace=wrap;html=1;" parent="1" vertex="1">
          <mxGeometry x="350" y="175" width="190" height="120" as="geometry" />
        </mxCell>
        <mxCell id="TRrzErzz80BEs_K_XsTW-6" value="manageDeliveries()" style="text;strokeColor=none;fillColor=none;align=left;verticalAlign=middle;spacingLeft=4;spacingRight=4;overflow=hidden;points=[[0,0.5],[1,0.5]];portConstraint=eastwest;rotatable=0;whiteSpace=wrap;html=1;" parent="TRrzErzz80BEs_K_XsTW-5" vertex="1">
          <mxGeometry y="30" width="190" height="30" as="geometry" />
        </mxCell>
        <mxCell id="TRrzErzz80BEs_K_XsTW-7" value="optimizeSupplyChain()" style="text;strokeColor=none;fillColor=none;align=left;verticalAlign=middle;spacingLeft=4;spacingRight=4;overflow=hidden;points=[[0,0.5],[1,0.5]];portConstraint=eastwest;rotatable=0;whiteSpace=wrap;html=1;" parent="TRrzErzz80BEs_K_XsTW-5" vertex="1">
          <mxGeometry y="60" width="190" height="30" as="geometry" />
        </mxCell>
        <mxCell id="TRrzErzz80BEs_K_XsTW-8" value="integrateSupplyChainSystems()" style="text;strokeColor=none;fillColor=none;align=left;verticalAlign=middle;spacingLeft=4;spacingRight=4;overflow=hidden;points=[[0,0.5],[1,0.5]];portConstraint=eastwest;rotatable=0;whiteSpace=wrap;html=1;" parent="TRrzErzz80BEs_K_XsTW-5" vertex="1">
          <mxGeometry y="90" width="190" height="30" as="geometry" />
        </mxCell>
        <mxCell id="TRrzErzz80BEs_K_XsTW-69" style="edgeStyle=orthogonalEdgeStyle;rounded=0;orthogonalLoop=1;jettySize=auto;html=1;entryX=0.5;entryY=0;entryDx=0;entryDy=0;endArrow=none;endFill=0;" parent="1" source="TRrzErzz80BEs_K_XsTW-9" target="TRrzErzz80BEs_K_XsTW-41" edge="1">
          <mxGeometry relative="1" as="geometry" />
        </mxCell>
        <mxCell id="TRrzErzz80BEs_K_XsTW-70" style="edgeStyle=orthogonalEdgeStyle;rounded=0;orthogonalLoop=1;jettySize=auto;html=1;entryX=0.25;entryY=0;entryDx=0;entryDy=0;exitX=0.51;exitY=1;exitDx=0;exitDy=0;exitPerimeter=0;endArrow=none;endFill=0;" parent="1" source="TRrzErzz80BEs_K_XsTW-11" target="TRrzErzz80BEs_K_XsTW-45" edge="1">
          <mxGeometry relative="1" as="geometry" />
        </mxCell>
        <mxCell id="TRrzErzz80BEs_K_XsTW-9" value="ITAdministrator" style="swimlane;fontStyle=0;childLayout=stackLayout;horizontal=1;startSize=30;horizontalStack=0;resizeParent=1;resizeParentMax=0;resizeLast=0;collapsible=1;marginBottom=0;whiteSpace=wrap;html=1;" parent="1" vertex="1">
          <mxGeometry x="40" y="410" width="210" height="90" as="geometry" />
        </mxCell>
        <mxCell id="TRrzErzz80BEs_K_XsTW-10" value="manageSystemIntegrations()" style="text;strokeColor=none;fillColor=none;align=left;verticalAlign=middle;spacingLeft=4;spacingRight=4;overflow=hidden;points=[[0,0.5],[1,0.5]];portConstraint=eastwest;rotatable=0;whiteSpace=wrap;html=1;" parent="TRrzErzz80BEs_K_XsTW-9" vertex="1">
          <mxGeometry y="30" width="210" height="30" as="geometry" />
        </mxCell>
        <mxCell id="TRrzErzz80BEs_K_XsTW-11" value="setupIoTDevices()" style="text;strokeColor=none;fillColor=none;align=left;verticalAlign=middle;spacingLeft=4;spacingRight=4;overflow=hidden;points=[[0,0.5],[1,0.5]];portConstraint=eastwest;rotatable=0;whiteSpace=wrap;html=1;" parent="TRrzErzz80BEs_K_XsTW-9" vertex="1">
          <mxGeometry y="60" width="210" height="30" as="geometry" />
        </mxCell>
        <mxCell id="TRrzErzz80BEs_K_XsTW-79" style="edgeStyle=orthogonalEdgeStyle;rounded=0;orthogonalLoop=1;jettySize=auto;html=1;entryX=0;entryY=0.5;entryDx=0;entryDy=0;" parent="1" source="TRrzErzz80BEs_K_XsTW-13" target="TRrzErzz80BEs_K_XsTW-75" edge="1">
          <mxGeometry relative="1" as="geometry" />
        </mxCell>
        <mxCell id="TRrzErzz80BEs_K_XsTW-13" value="SalesAndMarketingTeam" style="swimlane;fontStyle=0;childLayout=stackLayout;horizontal=1;startSize=30;horizontalStack=0;resizeParent=1;resizeParentMax=0;resizeLast=0;collapsible=1;marginBottom=0;whiteSpace=wrap;html=1;" parent="1" vertex="1">
          <mxGeometry x="-370" y="385" width="190" height="120" as="geometry" />
        </mxCell>
        <mxCell id="TRrzErzz80BEs_K_XsTW-14" value="trackSalesPerformance()" style="text;strokeColor=none;fillColor=none;align=left;verticalAlign=middle;spacingLeft=4;spacingRight=4;overflow=hidden;points=[[0,0.5],[1,0.5]];portConstraint=eastwest;rotatable=0;whiteSpace=wrap;html=1;" parent="TRrzErzz80BEs_K_XsTW-13" vertex="1">
          <mxGeometry y="30" width="190" height="30" as="geometry" />
        </mxCell>
        <mxCell id="TRrzErzz80BEs_K_XsTW-15" value="adjustStrategies()" style="text;strokeColor=none;fillColor=none;align=left;verticalAlign=middle;spacingLeft=4;spacingRight=4;overflow=hidden;points=[[0,0.5],[1,0.5]];portConstraint=eastwest;rotatable=0;whiteSpace=wrap;html=1;" parent="TRrzErzz80BEs_K_XsTW-13" vertex="1">
          <mxGeometry y="60" width="190" height="30" as="geometry" />
        </mxCell>
        <mxCell id="TRrzErzz80BEs_K_XsTW-16" value="manageCustomerRelations()" style="text;strokeColor=none;fillColor=none;align=left;verticalAlign=middle;spacingLeft=4;spacingRight=4;overflow=hidden;points=[[0,0.5],[1,0.5]];portConstraint=eastwest;rotatable=0;whiteSpace=wrap;html=1;" parent="TRrzErzz80BEs_K_XsTW-13" vertex="1">
          <mxGeometry y="90" width="190" height="30" as="geometry" />
        </mxCell>
        <mxCell id="TRrzErzz80BEs_K_XsTW-17" value="CustomerService" style="swimlane;fontStyle=0;childLayout=stackLayout;horizontal=1;startSize=30;horizontalStack=0;resizeParent=1;resizeParentMax=0;resizeLast=0;collapsible=1;marginBottom=0;whiteSpace=wrap;html=1;" parent="1" vertex="1">
          <mxGeometry x="-530" y="585" width="160" height="90" as="geometry" />
        </mxCell>
        <mxCell id="TRrzErzz80BEs_K_XsTW-18" value="logCustomerFeedback()" style="text;strokeColor=none;fillColor=none;align=left;verticalAlign=middle;spacingLeft=4;spacingRight=4;overflow=hidden;points=[[0,0.5],[1,0.5]];portConstraint=eastwest;rotatable=0;whiteSpace=wrap;html=1;" parent="TRrzErzz80BEs_K_XsTW-17" vertex="1">
          <mxGeometry y="30" width="160" height="30" as="geometry" />
        </mxCell>
        <mxCell id="TRrzErzz80BEs_K_XsTW-19" value="improveServiceQuality()" style="text;strokeColor=none;fillColor=none;align=left;verticalAlign=middle;spacingLeft=4;spacingRight=4;overflow=hidden;points=[[0,0.5],[1,0.5]];portConstraint=eastwest;rotatable=0;whiteSpace=wrap;html=1;" parent="TRrzErzz80BEs_K_XsTW-17" vertex="1">
          <mxGeometry y="60" width="160" height="30" as="geometry" />
        </mxCell>
        <mxCell id="TRrzErzz80BEs_K_XsTW-85" style="edgeStyle=orthogonalEdgeStyle;rounded=0;orthogonalLoop=1;jettySize=auto;html=1;entryX=0;entryY=0.5;entryDx=0;entryDy=0;endArrow=none;endFill=0;" parent="1" source="TRrzErzz80BEs_K_XsTW-21" target="TRrzErzz80BEs_K_XsTW-29" edge="1">
          <mxGeometry relative="1" as="geometry" />
        </mxCell>
        <mxCell id="TRrzErzz80BEs_K_XsTW-96" value="for design improvements" style="edgeLabel;html=1;align=center;verticalAlign=middle;resizable=0;points=[];" parent="TRrzErzz80BEs_K_XsTW-85" vertex="1" connectable="0">
          <mxGeometry x="0.18" y="-1" relative="1" as="geometry">
            <mxPoint as="offset" />
          </mxGeometry>
        </mxCell>
        <mxCell id="TRrzErzz80BEs_K_XsTW-86" style="edgeStyle=orthogonalEdgeStyle;rounded=0;orthogonalLoop=1;jettySize=auto;html=1;entryX=0.25;entryY=0;entryDx=0;entryDy=0;endArrow=none;endFill=0;" parent="1" source="TRrzErzz80BEs_K_XsTW-21" target="TRrzErzz80BEs_K_XsTW-81" edge="1">
          <mxGeometry relative="1" as="geometry" />
        </mxCell>
        <mxCell id="TRrzErzz80BEs_K_XsTW-95" value="for design improvements" style="edgeLabel;html=1;align=center;verticalAlign=middle;resizable=0;points=[];" parent="TRrzErzz80BEs_K_XsTW-86" vertex="1" connectable="0">
          <mxGeometry x="0.5571" relative="1" as="geometry">
            <mxPoint as="offset" />
          </mxGeometry>
        </mxCell>
        <mxCell id="TRrzErzz80BEs_K_XsTW-21" value="R&amp;amp;DTeam" style="swimlane;fontStyle=0;childLayout=stackLayout;horizontal=1;startSize=30;horizontalStack=0;resizeParent=1;resizeParentMax=0;resizeLast=0;collapsible=1;marginBottom=0;whiteSpace=wrap;html=1;" parent="1" vertex="1">
          <mxGeometry x="-400" y="175" width="160" height="90" as="geometry" />
        </mxCell>
        <mxCell id="TRrzErzz80BEs_K_XsTW-22" value="analyzeEfficiencyData()" style="text;strokeColor=none;fillColor=none;align=left;verticalAlign=middle;spacingLeft=4;spacingRight=4;overflow=hidden;points=[[0,0.5],[1,0.5]];portConstraint=eastwest;rotatable=0;whiteSpace=wrap;html=1;" parent="TRrzErzz80BEs_K_XsTW-21" vertex="1">
          <mxGeometry y="30" width="160" height="30" as="geometry" />
        </mxCell>
        <mxCell id="TRrzErzz80BEs_K_XsTW-23" value="developNewTechniques()" style="text;strokeColor=none;fillColor=none;align=left;verticalAlign=middle;spacingLeft=4;spacingRight=4;overflow=hidden;points=[[0,0.5],[1,0.5]];portConstraint=eastwest;rotatable=0;whiteSpace=wrap;html=1;" parent="TRrzErzz80BEs_K_XsTW-21" vertex="1">
          <mxGeometry y="60" width="160" height="30" as="geometry" />
        </mxCell>
        <mxCell id="GbSDMGa-5-VjCog5myYC-5" style="edgeStyle=orthogonalEdgeStyle;rounded=0;orthogonalLoop=1;jettySize=auto;html=1;entryX=1;entryY=0.5;entryDx=0;entryDy=0;" edge="1" parent="1" source="TRrzErzz80BEs_K_XsTW-25" target="GbSDMGa-5-VjCog5myYC-1">
          <mxGeometry relative="1" as="geometry">
            <Array as="points">
              <mxPoint x="240" y="-45" />
            </Array>
          </mxGeometry>
        </mxCell>
        <mxCell id="GbSDMGa-5-VjCog5myYC-8" value="Generate Alert" style="edgeLabel;html=1;align=center;verticalAlign=middle;resizable=0;points=[];" vertex="1" connectable="0" parent="GbSDMGa-5-VjCog5myYC-5">
          <mxGeometry x="0.0962" y="-3" relative="1" as="geometry">
            <mxPoint y="-12" as="offset" />
          </mxGeometry>
        </mxCell>
        <mxCell id="GbSDMGa-5-VjCog5myYC-13" style="edgeStyle=orthogonalEdgeStyle;rounded=0;orthogonalLoop=1;jettySize=auto;html=1;exitX=0.75;exitY=0;exitDx=0;exitDy=0;endArrow=none;endFill=0;" edge="1" parent="1" source="TRrzErzz80BEs_K_XsTW-25">
          <mxGeometry relative="1" as="geometry">
            <mxPoint x="275" y="-100" as="targetPoint" />
          </mxGeometry>
        </mxCell>
        <mxCell id="GbSDMGa-5-VjCog5myYC-14" value="Store data" style="edgeLabel;html=1;align=center;verticalAlign=middle;resizable=0;points=[];" vertex="1" connectable="0" parent="GbSDMGa-5-VjCog5myYC-13">
          <mxGeometry x="0.4653" y="-5" relative="1" as="geometry">
            <mxPoint as="offset" />
          </mxGeometry>
        </mxCell>
        <mxCell id="TRrzErzz80BEs_K_XsTW-25" value="IoTSystem" style="swimlane;fontStyle=0;childLayout=stackLayout;horizontal=1;startSize=30;horizontalStack=0;resizeParent=1;resizeParentMax=0;resizeLast=0;collapsible=1;marginBottom=0;whiteSpace=wrap;html=1;" parent="1" vertex="1">
          <mxGeometry x="170" y="10" width="140" height="90" as="geometry" />
        </mxCell>
        <mxCell id="TRrzErzz80BEs_K_XsTW-26" value="collectSensorData()" style="text;strokeColor=none;fillColor=none;align=left;verticalAlign=middle;spacingLeft=4;spacingRight=4;overflow=hidden;points=[[0,0.5],[1,0.5]];portConstraint=eastwest;rotatable=0;whiteSpace=wrap;html=1;" parent="TRrzErzz80BEs_K_XsTW-25" vertex="1">
          <mxGeometry y="30" width="140" height="30" as="geometry" />
        </mxCell>
        <mxCell id="TRrzErzz80BEs_K_XsTW-27" value="detectIssues()" style="text;strokeColor=none;fillColor=none;align=left;verticalAlign=middle;spacingLeft=4;spacingRight=4;overflow=hidden;points=[[0,0.5],[1,0.5]];portConstraint=eastwest;rotatable=0;whiteSpace=wrap;html=1;" parent="TRrzErzz80BEs_K_XsTW-25" vertex="1">
          <mxGeometry y="60" width="140" height="30" as="geometry" />
        </mxCell>
        <mxCell id="TRrzErzz80BEs_K_XsTW-29" value="ProductionData" style="swimlane;fontStyle=0;childLayout=stackLayout;horizontal=1;startSize=30;horizontalStack=0;resizeParent=1;resizeParentMax=0;resizeLast=0;collapsible=1;marginBottom=0;whiteSpace=wrap;html=1;" parent="1" vertex="1">
          <mxGeometry x="-100" y="145" width="140" height="30" as="geometry" />
        </mxCell>
        <mxCell id="TRrzErzz80BEs_K_XsTW-33" value="LogisticsData" style="swimlane;fontStyle=0;childLayout=stackLayout;horizontal=1;startSize=30;horizontalStack=0;resizeParent=1;resizeParentMax=0;resizeLast=0;collapsible=1;marginBottom=0;whiteSpace=wrap;html=1;" parent="1" vertex="1">
          <mxGeometry x="375" y="330" width="140" height="30" as="geometry" />
        </mxCell>
        <mxCell id="TRrzErzz80BEs_K_XsTW-37" value="ERPSystem" style="swimlane;fontStyle=0;childLayout=stackLayout;horizontal=1;startSize=30;horizontalStack=0;resizeParent=1;resizeParentMax=0;resizeLast=0;collapsible=1;marginBottom=0;whiteSpace=wrap;html=1;" parent="1" vertex="1">
          <mxGeometry x="-70" y="570" width="140" height="90" as="geometry" />
        </mxCell>
        <mxCell id="TRrzErzz80BEs_K_XsTW-38" value="integrateData()" style="text;strokeColor=none;fillColor=none;align=left;verticalAlign=middle;spacingLeft=4;spacingRight=4;overflow=hidden;points=[[0,0.5],[1,0.5]];portConstraint=eastwest;rotatable=0;whiteSpace=wrap;html=1;" parent="TRrzErzz80BEs_K_XsTW-37" vertex="1">
          <mxGeometry y="30" width="140" height="30" as="geometry" />
        </mxCell>
        <mxCell id="TRrzErzz80BEs_K_XsTW-39" value="manageInventory()" style="text;strokeColor=none;fillColor=none;align=left;verticalAlign=middle;spacingLeft=4;spacingRight=4;overflow=hidden;points=[[0,0.5],[1,0.5]];portConstraint=eastwest;rotatable=0;whiteSpace=wrap;html=1;" parent="TRrzErzz80BEs_K_XsTW-37" vertex="1">
          <mxGeometry y="60" width="140" height="30" as="geometry" />
        </mxCell>
        <mxCell id="TRrzErzz80BEs_K_XsTW-41" value="CRMSystem" style="swimlane;fontStyle=0;childLayout=stackLayout;horizontal=1;startSize=30;horizontalStack=0;resizeParent=1;resizeParentMax=0;resizeLast=0;collapsible=1;marginBottom=0;whiteSpace=wrap;html=1;" parent="1" vertex="1">
          <mxGeometry x="90" y="570" width="140" height="90" as="geometry" />
        </mxCell>
        <mxCell id="TRrzErzz80BEs_K_XsTW-42" value="storeCustomerInteractions()" style="text;strokeColor=none;fillColor=none;align=left;verticalAlign=middle;spacingLeft=4;spacingRight=4;overflow=hidden;points=[[0,0.5],[1,0.5]];portConstraint=eastwest;rotatable=0;whiteSpace=wrap;html=1;" parent="TRrzErzz80BEs_K_XsTW-41" vertex="1">
          <mxGeometry y="30" width="140" height="30" as="geometry" />
        </mxCell>
        <mxCell id="TRrzErzz80BEs_K_XsTW-43" value="logFeedback()" style="text;strokeColor=none;fillColor=none;align=left;verticalAlign=middle;spacingLeft=4;spacingRight=4;overflow=hidden;points=[[0,0.5],[1,0.5]];portConstraint=eastwest;rotatable=0;whiteSpace=wrap;html=1;" parent="TRrzErzz80BEs_K_XsTW-41" vertex="1">
          <mxGeometry y="60" width="140" height="30" as="geometry" />
        </mxCell>
        <mxCell id="TRrzErzz80BEs_K_XsTW-45" value="SCMSystem" style="swimlane;fontStyle=0;childLayout=stackLayout;horizontal=1;startSize=30;horizontalStack=0;resizeParent=1;resizeParentMax=0;resizeLast=0;collapsible=1;marginBottom=0;whiteSpace=wrap;html=1;" parent="1" vertex="1">
          <mxGeometry x="274" y="570" width="140" height="90" as="geometry" />
        </mxCell>
        <mxCell id="TRrzErzz80BEs_K_XsTW-46" value="optimizeSupplyChain()" style="text;strokeColor=none;fillColor=none;align=left;verticalAlign=middle;spacingLeft=4;spacingRight=4;overflow=hidden;points=[[0,0.5],[1,0.5]];portConstraint=eastwest;rotatable=0;whiteSpace=wrap;html=1;" parent="TRrzErzz80BEs_K_XsTW-45" vertex="1">
          <mxGeometry y="30" width="140" height="30" as="geometry" />
        </mxCell>
        <mxCell id="TRrzErzz80BEs_K_XsTW-47" value="trackInventory()" style="text;strokeColor=none;fillColor=none;align=left;verticalAlign=middle;spacingLeft=4;spacingRight=4;overflow=hidden;points=[[0,0.5],[1,0.5]];portConstraint=eastwest;rotatable=0;whiteSpace=wrap;html=1;" parent="TRrzErzz80BEs_K_XsTW-45" vertex="1">
          <mxGeometry y="60" width="140" height="30" as="geometry" />
        </mxCell>
        <mxCell id="TRrzErzz80BEs_K_XsTW-65" style="edgeStyle=orthogonalEdgeStyle;rounded=0;orthogonalLoop=1;jettySize=auto;html=1;endArrow=none;endFill=0;" parent="1" source="TRrzErzz80BEs_K_XsTW-29" target="TRrzErzz80BEs_K_XsTW-3" edge="1">
          <mxGeometry relative="1" as="geometry" />
        </mxCell>
        <mxCell id="TRrzErzz80BEs_K_XsTW-66" style="edgeStyle=orthogonalEdgeStyle;rounded=0;orthogonalLoop=1;jettySize=auto;html=1;endArrow=none;endFill=0;exitX=0.459;exitY=0.067;exitDx=0;exitDy=0;exitPerimeter=0;" parent="1" source="TRrzErzz80BEs_K_XsTW-2" target="TRrzErzz80BEs_K_XsTW-26" edge="1">
          <mxGeometry relative="1" as="geometry">
            <Array as="points">
              <mxPoint x="-225" y="52" />
              <mxPoint x="-225" y="50" />
            </Array>
          </mxGeometry>
        </mxCell>
        <mxCell id="TRrzErzz80BEs_K_XsTW-87" value="Provide Data" style="edgeLabel;html=1;align=center;verticalAlign=middle;resizable=0;points=[];" parent="TRrzErzz80BEs_K_XsTW-66" vertex="1" connectable="0">
          <mxGeometry x="0.1831" y="1" relative="1" as="geometry">
            <mxPoint x="95" y="-9" as="offset" />
          </mxGeometry>
        </mxCell>
        <mxCell id="TRrzErzz80BEs_K_XsTW-90" value="monitoring production data" style="edgeLabel;html=1;align=center;verticalAlign=middle;resizable=0;points=[];" parent="TRrzErzz80BEs_K_XsTW-66" vertex="1" connectable="0">
          <mxGeometry x="-0.1585" y="2" relative="1" as="geometry">
            <mxPoint x="-6" y="12" as="offset" />
          </mxGeometry>
        </mxCell>
        <mxCell id="TRrzErzz80BEs_K_XsTW-67" style="edgeStyle=orthogonalEdgeStyle;rounded=0;orthogonalLoop=1;jettySize=auto;html=1;entryX=0;entryY=0.5;entryDx=0;entryDy=0;" parent="1" source="TRrzErzz80BEs_K_XsTW-3" target="TRrzErzz80BEs_K_XsTW-7" edge="1">
          <mxGeometry relative="1" as="geometry">
            <Array as="points">
              <mxPoint x="105" y="95" />
              <mxPoint x="105" y="250" />
            </Array>
          </mxGeometry>
        </mxCell>
        <mxCell id="TRrzErzz80BEs_K_XsTW-91" value="for aligned delivery schedules" style="edgeLabel;html=1;align=center;verticalAlign=middle;resizable=0;points=[];" parent="TRrzErzz80BEs_K_XsTW-67" vertex="1" connectable="0">
          <mxGeometry x="0.4884" y="-2" relative="1" as="geometry">
            <mxPoint x="-35" y="-2" as="offset" />
          </mxGeometry>
        </mxCell>
        <mxCell id="TRrzErzz80BEs_K_XsTW-68" style="edgeStyle=orthogonalEdgeStyle;rounded=0;orthogonalLoop=1;jettySize=auto;html=1;entryX=0.45;entryY=-0.033;entryDx=0;entryDy=0;entryPerimeter=0;endArrow=none;endFill=0;" parent="1" source="TRrzErzz80BEs_K_XsTW-9" target="TRrzErzz80BEs_K_XsTW-37" edge="1">
          <mxGeometry relative="1" as="geometry" />
        </mxCell>
        <mxCell id="TRrzErzz80BEs_K_XsTW-92" value="data management" style="edgeLabel;html=1;align=center;verticalAlign=middle;resizable=0;points=[];" parent="TRrzErzz80BEs_K_XsTW-68" vertex="1" connectable="0">
          <mxGeometry x="-0.8865" y="1" relative="1" as="geometry">
            <mxPoint as="offset" />
          </mxGeometry>
        </mxCell>
        <mxCell id="TRrzErzz80BEs_K_XsTW-72" style="edgeStyle=orthogonalEdgeStyle;rounded=0;orthogonalLoop=1;jettySize=auto;html=1;entryX=0.521;entryY=1.033;entryDx=0;entryDy=0;entryPerimeter=0;endArrow=none;endFill=0;" parent="1" source="TRrzErzz80BEs_K_XsTW-9" target="TRrzErzz80BEs_K_XsTW-27" edge="1">
          <mxGeometry relative="1" as="geometry">
            <Array as="points">
              <mxPoint x="145" y="390" />
              <mxPoint x="243" y="390" />
            </Array>
          </mxGeometry>
        </mxCell>
        <mxCell id="TRrzErzz80BEs_K_XsTW-73" style="edgeStyle=orthogonalEdgeStyle;rounded=0;orthogonalLoop=1;jettySize=auto;html=1;endArrow=none;endFill=0;exitX=0;exitY=0.5;exitDx=0;exitDy=0;entryX=0.5;entryY=0;entryDx=0;entryDy=0;" parent="1" source="TRrzErzz80BEs_K_XsTW-15" target="TRrzErzz80BEs_K_XsTW-17" edge="1">
          <mxGeometry relative="1" as="geometry">
            <mxPoint x="-460" y="620" as="targetPoint" />
            <Array as="points">
              <mxPoint x="-370" y="490" />
              <mxPoint x="-460" y="490" />
            </Array>
          </mxGeometry>
        </mxCell>
        <mxCell id="TRrzErzz80BEs_K_XsTW-93" value="customer satisfaction insights" style="edgeLabel;html=1;align=center;verticalAlign=middle;resizable=0;points=[];" parent="TRrzErzz80BEs_K_XsTW-73" vertex="1" connectable="0">
          <mxGeometry x="0.6429" y="2" relative="1" as="geometry">
            <mxPoint as="offset" />
          </mxGeometry>
        </mxCell>
        <mxCell id="TRrzErzz80BEs_K_XsTW-74" style="edgeStyle=orthogonalEdgeStyle;rounded=0;orthogonalLoop=1;jettySize=auto;html=1;entryX=0.543;entryY=1.133;entryDx=0;entryDy=0;entryPerimeter=0;" parent="1" source="TRrzErzz80BEs_K_XsTW-13" target="TRrzErzz80BEs_K_XsTW-43" edge="1">
          <mxGeometry relative="1" as="geometry">
            <Array as="points">
              <mxPoint x="-275" y="710" />
              <mxPoint x="156" y="710" />
              <mxPoint x="156" y="664" />
            </Array>
          </mxGeometry>
        </mxCell>
        <mxCell id="TRrzErzz80BEs_K_XsTW-94" value="for strategic planning." style="edgeLabel;html=1;align=center;verticalAlign=middle;resizable=0;points=[];" parent="TRrzErzz80BEs_K_XsTW-74" vertex="1" connectable="0">
          <mxGeometry x="-0.9681" y="-1" relative="1" as="geometry">
            <mxPoint y="38" as="offset" />
          </mxGeometry>
        </mxCell>
        <mxCell id="TRrzErzz80BEs_K_XsTW-75" value="Sales Data" style="swimlane;fontStyle=0;childLayout=stackLayout;horizontal=1;startSize=30;horizontalStack=0;resizeParent=1;resizeParentMax=0;resizeLast=0;collapsible=1;marginBottom=0;whiteSpace=wrap;html=1;" parent="1" vertex="1">
          <mxGeometry x="-250" y="570" width="140" height="30" as="geometry" />
        </mxCell>
        <mxCell id="TRrzErzz80BEs_K_XsTW-80" style="edgeStyle=orthogonalEdgeStyle;rounded=0;orthogonalLoop=1;jettySize=auto;html=1;entryX=0.3;entryY=1.067;entryDx=0;entryDy=0;entryPerimeter=0;" parent="1" source="TRrzErzz80BEs_K_XsTW-17" target="TRrzErzz80BEs_K_XsTW-43" edge="1">
          <mxGeometry relative="1" as="geometry">
            <Array as="points">
              <mxPoint x="-460" y="740" />
              <mxPoint x="122" y="740" />
              <mxPoint x="122" y="662" />
            </Array>
          </mxGeometry>
        </mxCell>
        <mxCell id="TRrzErzz80BEs_K_XsTW-97" value="for managing feedback" style="edgeLabel;html=1;align=center;verticalAlign=middle;resizable=0;points=[];" parent="TRrzErzz80BEs_K_XsTW-80" vertex="1" connectable="0">
          <mxGeometry x="-0.2657" y="-1" relative="1" as="geometry">
            <mxPoint as="offset" />
          </mxGeometry>
        </mxCell>
        <mxCell id="TRrzErzz80BEs_K_XsTW-81" value="CustomerFeedback" style="swimlane;fontStyle=0;childLayout=stackLayout;horizontal=1;startSize=30;horizontalStack=0;resizeParent=1;resizeParentMax=0;resizeLast=0;collapsible=1;marginBottom=0;whiteSpace=wrap;html=1;" parent="1" vertex="1">
          <mxGeometry x="-180" y="265" width="140" height="30" as="geometry" />
        </mxCell>
        <mxCell id="TRrzErzz80BEs_K_XsTW-88" style="edgeStyle=orthogonalEdgeStyle;rounded=0;orthogonalLoop=1;jettySize=auto;html=1;entryX=0.236;entryY=1.033;entryDx=0;entryDy=0;entryPerimeter=0;endArrow=none;endFill=0;" parent="1" source="TRrzErzz80BEs_K_XsTW-22" target="TRrzErzz80BEs_K_XsTW-27" edge="1">
          <mxGeometry relative="1" as="geometry" />
        </mxCell>
        <mxCell id="TRrzErzz80BEs_K_XsTW-89" value="Provide Data" style="edgeLabel;html=1;align=center;verticalAlign=middle;resizable=0;points=[];" parent="TRrzErzz80BEs_K_XsTW-88" vertex="1" connectable="0">
          <mxGeometry x="0.3736" y="4" relative="1" as="geometry">
            <mxPoint as="offset" />
          </mxGeometry>
        </mxCell>
        <mxCell id="GR6JLFNSVhrEqINp1s79-55" style="edgeStyle=orthogonalEdgeStyle;rounded=0;orthogonalLoop=1;jettySize=auto;html=1;curved=1;" parent="1" source="GR6JLFNSVhrEqINp1s79-1" target="GR6JLFNSVhrEqINp1s79-26" edge="1">
          <mxGeometry relative="1" as="geometry" />
        </mxCell>
        <mxCell id="GR6JLFNSVhrEqINp1s79-1" value="Manufacturing Manager" style="shape=umlActor;verticalLabelPosition=bottom;verticalAlign=top;html=1;outlineConnect=0;" parent="1" vertex="1">
          <mxGeometry x="-460" y="940" width="30" height="60" as="geometry" />
        </mxCell>
        <mxCell id="GR6JLFNSVhrEqINp1s79-2" value="R&amp;amp;D Team" style="shape=umlActor;verticalLabelPosition=bottom;verticalAlign=top;html=1;outlineConnect=0;" parent="1" vertex="1">
          <mxGeometry x="-200" y="1200" width="30" height="60" as="geometry" />
        </mxCell>
        <mxCell id="GR6JLFNSVhrEqINp1s79-3" value="Logistics Manager" style="shape=umlActor;verticalLabelPosition=bottom;verticalAlign=top;html=1;outlineConnect=0;" parent="1" vertex="1">
          <mxGeometry x="170" y="1200" width="30" height="60" as="geometry" />
        </mxCell>
        <mxCell id="GR6JLFNSVhrEqINp1s79-4" value="Sales &amp;amp; Marketing Team" style="shape=umlActor;verticalLabelPosition=bottom;verticalAlign=top;html=1;outlineConnect=0;" parent="1" vertex="1">
          <mxGeometry x="350" y="1200" width="30" height="60" as="geometry" />
        </mxCell>
        <mxCell id="GR6JLFNSVhrEqINp1s79-16" style="edgeStyle=orthogonalEdgeStyle;rounded=0;orthogonalLoop=1;jettySize=auto;html=1;entryX=0.5;entryY=0;entryDx=0;entryDy=0;" parent="1" source="GR6JLFNSVhrEqINp1s79-5" target="GR6JLFNSVhrEqINp1s79-12" edge="1">
          <mxGeometry relative="1" as="geometry" />
        </mxCell>
        <mxCell id="GR6JLFNSVhrEqINp1s79-5" value="Customer service&lt;div&gt;&lt;br&gt;&lt;/div&gt;" style="shape=umlActor;verticalLabelPosition=bottom;verticalAlign=top;html=1;outlineConnect=0;" parent="1" vertex="1">
          <mxGeometry x="680" y="950" width="30" height="60" as="geometry" />
        </mxCell>
        <mxCell id="GR6JLFNSVhrEqINp1s79-6" value="IT Administrator" style="shape=umlActor;verticalLabelPosition=bottom;verticalAlign=top;html=1;outlineConnect=0;" parent="1" vertex="1">
          <mxGeometry x="855" y="950" width="30" height="60" as="geometry" />
        </mxCell>
        <mxCell id="GR6JLFNSVhrEqINp1s79-10" value="" style="swimlane;startSize=0;" parent="1" vertex="1">
          <mxGeometry x="595" y="1060" width="200" height="270" as="geometry" />
        </mxCell>
        <mxCell id="GR6JLFNSVhrEqINp1s79-11" value="&lt;b&gt;CRM System&lt;/b&gt;" style="text;html=1;align=center;verticalAlign=middle;resizable=0;points=[];autosize=1;strokeColor=none;fillColor=none;" parent="GR6JLFNSVhrEqINp1s79-10" vertex="1">
          <mxGeometry x="50" width="100" height="30" as="geometry" />
        </mxCell>
        <mxCell id="GR6JLFNSVhrEqINp1s79-14" style="edgeStyle=orthogonalEdgeStyle;rounded=0;orthogonalLoop=1;jettySize=auto;html=1;entryX=0.5;entryY=0;entryDx=0;entryDy=0;" parent="GR6JLFNSVhrEqINp1s79-10" source="GR6JLFNSVhrEqINp1s79-12" target="GR6JLFNSVhrEqINp1s79-13" edge="1">
          <mxGeometry relative="1" as="geometry" />
        </mxCell>
        <mxCell id="GR6JLFNSVhrEqINp1s79-15" value="For Analysis" style="edgeLabel;html=1;align=center;verticalAlign=middle;resizable=0;points=[];" parent="GR6JLFNSVhrEqINp1s79-14" vertex="1" connectable="0">
          <mxGeometry x="-0.0762" relative="1" as="geometry">
            <mxPoint as="offset" />
          </mxGeometry>
        </mxCell>
        <mxCell id="GR6JLFNSVhrEqINp1s79-12" value="Log Customer Feedback" style="ellipse;whiteSpace=wrap;html=1;" parent="GR6JLFNSVhrEqINp1s79-10" vertex="1">
          <mxGeometry x="40" y="40" width="120" height="40" as="geometry" />
        </mxCell>
        <mxCell id="GR6JLFNSVhrEqINp1s79-13" value="Store Customer Interactions" style="ellipse;whiteSpace=wrap;html=1;" parent="GR6JLFNSVhrEqINp1s79-10" vertex="1">
          <mxGeometry x="40" y="180" width="120" height="50" as="geometry" />
        </mxCell>
        <mxCell id="GR6JLFNSVhrEqINp1s79-17" value="" style="swimlane;startSize=0;" parent="1" vertex="1">
          <mxGeometry x="820" y="1060" width="200" height="270" as="geometry" />
        </mxCell>
        <mxCell id="GR6JLFNSVhrEqINp1s79-18" value="&lt;b&gt;SCM System&lt;/b&gt;" style="text;html=1;align=center;verticalAlign=middle;resizable=0;points=[];autosize=1;strokeColor=none;fillColor=none;" parent="GR6JLFNSVhrEqINp1s79-17" vertex="1">
          <mxGeometry x="50" width="100" height="30" as="geometry" />
        </mxCell>
        <mxCell id="GR6JLFNSVhrEqINp1s79-19" style="edgeStyle=orthogonalEdgeStyle;rounded=0;orthogonalLoop=1;jettySize=auto;html=1;entryX=0.5;entryY=0;entryDx=0;entryDy=0;" parent="GR6JLFNSVhrEqINp1s79-17" source="GR6JLFNSVhrEqINp1s79-21" target="GR6JLFNSVhrEqINp1s79-22" edge="1">
          <mxGeometry relative="1" as="geometry" />
        </mxCell>
        <mxCell id="GR6JLFNSVhrEqINp1s79-20" value="Optimize Operations" style="edgeLabel;html=1;align=center;verticalAlign=middle;resizable=0;points=[];" parent="GR6JLFNSVhrEqINp1s79-19" vertex="1" connectable="0">
          <mxGeometry x="-0.0762" relative="1" as="geometry">
            <mxPoint as="offset" />
          </mxGeometry>
        </mxCell>
        <mxCell id="GR6JLFNSVhrEqINp1s79-21" value="Track Inventory" style="ellipse;whiteSpace=wrap;html=1;" parent="GR6JLFNSVhrEqINp1s79-17" vertex="1">
          <mxGeometry x="40" y="40" width="120" height="40" as="geometry" />
        </mxCell>
        <mxCell id="GR6JLFNSVhrEqINp1s79-22" value="Optimize Supply Chain" style="ellipse;whiteSpace=wrap;html=1;" parent="GR6JLFNSVhrEqINp1s79-17" vertex="1">
          <mxGeometry x="40" y="180" width="120" height="50" as="geometry" />
        </mxCell>
        <mxCell id="GR6JLFNSVhrEqINp1s79-23" value="" style="swimlane;startSize=0;" parent="1" vertex="1">
          <mxGeometry x="-500" y="1380" width="1000" height="200" as="geometry" />
        </mxCell>
        <mxCell id="GR6JLFNSVhrEqINp1s79-25" value="&lt;b&gt;&lt;font style=&quot;font-size: 17px;&quot;&gt;Process&lt;/font&gt;&lt;/b&gt;" style="text;html=1;align=center;verticalAlign=middle;resizable=0;points=[];autosize=1;strokeColor=none;fillColor=none;" parent="GR6JLFNSVhrEqINp1s79-23" vertex="1">
          <mxGeometry x="455" width="90" height="30" as="geometry" />
        </mxCell>
        <mxCell id="GR6JLFNSVhrEqINp1s79-26" value="Optimize Production Process" style="ellipse;whiteSpace=wrap;html=1;" parent="GR6JLFNSVhrEqINp1s79-23" vertex="1">
          <mxGeometry x="26" y="80" width="164" height="80" as="geometry" />
        </mxCell>
        <mxCell id="GR6JLFNSVhrEqINp1s79-27" value="Develop New Manufacturing Techniques" style="ellipse;whiteSpace=wrap;html=1;" parent="GR6JLFNSVhrEqINp1s79-23" vertex="1">
          <mxGeometry x="250" y="80" width="210" height="80" as="geometry" />
        </mxCell>
        <mxCell id="GR6JLFNSVhrEqINp1s79-28" value="Improve Customer Satisfaction" style="ellipse;whiteSpace=wrap;html=1;" parent="GR6JLFNSVhrEqINp1s79-23" vertex="1">
          <mxGeometry x="780" y="90" width="180" height="60" as="geometry" />
        </mxCell>
        <mxCell id="GR6JLFNSVhrEqINp1s79-29" value="Enchance Delivery Effiency" style="ellipse;whiteSpace=wrap;html=1;" parent="GR6JLFNSVhrEqINp1s79-23" vertex="1">
          <mxGeometry x="580" y="90" width="170" height="60" as="geometry" />
        </mxCell>
        <mxCell id="GR6JLFNSVhrEqINp1s79-30" style="edgeStyle=orthogonalEdgeStyle;rounded=0;orthogonalLoop=1;jettySize=auto;html=1;curved=1;entryX=0.725;entryY=-0.016;entryDx=0;entryDy=0;entryPerimeter=0;" parent="1" source="GR6JLFNSVhrEqINp1s79-3" target="GR6JLFNSVhrEqINp1s79-29" edge="1">
          <mxGeometry relative="1" as="geometry">
            <mxPoint x="184" y="1450" as="targetPoint" />
          </mxGeometry>
        </mxCell>
        <mxCell id="GR6JLFNSVhrEqINp1s79-31" style="edgeStyle=orthogonalEdgeStyle;rounded=0;orthogonalLoop=1;jettySize=auto;html=1;entryX=0.616;entryY=-0.016;entryDx=0;entryDy=0;entryPerimeter=0;curved=1;" parent="1" source="GR6JLFNSVhrEqINp1s79-4" target="GR6JLFNSVhrEqINp1s79-28" edge="1">
          <mxGeometry relative="1" as="geometry" />
        </mxCell>
        <mxCell id="GR6JLFNSVhrEqINp1s79-32" value="Improve Deliveries" style="edgeLabel;html=1;align=center;verticalAlign=middle;resizable=0;points=[];" parent="GR6JLFNSVhrEqINp1s79-31" vertex="1" connectable="0">
          <mxGeometry x="0.041" relative="1" as="geometry">
            <mxPoint as="offset" />
          </mxGeometry>
        </mxCell>
        <mxCell id="GR6JLFNSVhrEqINp1s79-33" style="edgeStyle=orthogonalEdgeStyle;rounded=0;orthogonalLoop=1;jettySize=auto;html=1;entryX=1;entryY=0;entryDx=0;entryDy=0;curved=1;" parent="1" source="GR6JLFNSVhrEqINp1s79-13" target="GR6JLFNSVhrEqINp1s79-28" edge="1">
          <mxGeometry relative="1" as="geometry" />
        </mxCell>
        <mxCell id="GR6JLFNSVhrEqINp1s79-34" value="Customer Insights" style="edgeLabel;html=1;align=center;verticalAlign=middle;resizable=0;points=[];" parent="GR6JLFNSVhrEqINp1s79-33" vertex="1" connectable="0">
          <mxGeometry x="0.3739" y="28" relative="1" as="geometry">
            <mxPoint as="offset" />
          </mxGeometry>
        </mxCell>
        <mxCell id="GR6JLFNSVhrEqINp1s79-35" style="edgeStyle=orthogonalEdgeStyle;rounded=0;orthogonalLoop=1;jettySize=auto;html=1;entryX=0.893;entryY=0.222;entryDx=0;entryDy=0;curved=1;entryPerimeter=0;exitX=0.5;exitY=1;exitDx=0;exitDy=0;" parent="1" source="GR6JLFNSVhrEqINp1s79-22" target="GR6JLFNSVhrEqINp1s79-29" edge="1">
          <mxGeometry relative="1" as="geometry">
            <mxPoint x="864.5201088436361" y="1279.997619047619" as="sourcePoint" />
            <mxPoint x="230.0192993368569" y="1493.8772103433419" as="targetPoint" />
          </mxGeometry>
        </mxCell>
        <mxCell id="GR6JLFNSVhrEqINp1s79-38" style="edgeStyle=orthogonalEdgeStyle;rounded=0;orthogonalLoop=1;jettySize=auto;html=1;entryX=0.353;entryY=0.042;entryDx=0;entryDy=0;entryPerimeter=0;curved=1;" parent="1" source="GR6JLFNSVhrEqINp1s79-2" target="GR6JLFNSVhrEqINp1s79-27" edge="1">
          <mxGeometry relative="1" as="geometry" />
        </mxCell>
        <mxCell id="GR6JLFNSVhrEqINp1s79-39" value="" style="swimlane;startSize=0;" parent="1" vertex="1">
          <mxGeometry x="-780" y="1200" width="200" height="360" as="geometry" />
        </mxCell>
        <mxCell id="GR6JLFNSVhrEqINp1s79-50" style="edgeStyle=orthogonalEdgeStyle;rounded=0;orthogonalLoop=1;jettySize=auto;html=1;entryX=0.5;entryY=0;entryDx=0;entryDy=0;" parent="GR6JLFNSVhrEqINp1s79-39" source="GR6JLFNSVhrEqINp1s79-48" target="GR6JLFNSVhrEqINp1s79-49" edge="1">
          <mxGeometry relative="1" as="geometry" />
        </mxCell>
        <mxCell id="GR6JLFNSVhrEqINp1s79-51" value="For Inventory Managment" style="edgeLabel;html=1;align=center;verticalAlign=middle;resizable=0;points=[];" parent="GR6JLFNSVhrEqINp1s79-50" vertex="1" connectable="0">
          <mxGeometry x="0.0476" relative="1" as="geometry">
            <mxPoint as="offset" />
          </mxGeometry>
        </mxCell>
        <mxCell id="GR6JLFNSVhrEqINp1s79-48" value="Integrate Production Data" style="ellipse;whiteSpace=wrap;html=1;" parent="GR6JLFNSVhrEqINp1s79-39" vertex="1">
          <mxGeometry x="40" y="60" width="120" height="80" as="geometry" />
        </mxCell>
        <mxCell id="GR6JLFNSVhrEqINp1s79-49" value="Manage Inventory" style="ellipse;whiteSpace=wrap;html=1;" parent="GR6JLFNSVhrEqINp1s79-39" vertex="1">
          <mxGeometry x="40" y="210" width="120" height="80" as="geometry" />
        </mxCell>
        <mxCell id="GR6JLFNSVhrEqINp1s79-40" value="" style="swimlane;startSize=0;" parent="1" vertex="1">
          <mxGeometry x="-1050" y="1050" width="200" height="360" as="geometry" />
        </mxCell>
        <mxCell id="GR6JLFNSVhrEqINp1s79-45" style="edgeStyle=orthogonalEdgeStyle;rounded=0;orthogonalLoop=1;jettySize=auto;html=1;entryX=0.5;entryY=0;entryDx=0;entryDy=0;" parent="GR6JLFNSVhrEqINp1s79-40" source="GR6JLFNSVhrEqINp1s79-43" target="GR6JLFNSVhrEqINp1s79-44" edge="1">
          <mxGeometry relative="1" as="geometry" />
        </mxCell>
        <mxCell id="GR6JLFNSVhrEqINp1s79-46" value="For Issue Detection" style="edgeLabel;html=1;align=center;verticalAlign=middle;resizable=0;points=[];" parent="GR6JLFNSVhrEqINp1s79-45" vertex="1" connectable="0">
          <mxGeometry x="-0.0762" y="-1" relative="1" as="geometry">
            <mxPoint as="offset" />
          </mxGeometry>
        </mxCell>
        <mxCell id="GR6JLFNSVhrEqINp1s79-43" value="Monitor Production Data" style="ellipse;whiteSpace=wrap;html=1;" parent="GR6JLFNSVhrEqINp1s79-40" vertex="1">
          <mxGeometry x="40" y="50" width="120" height="80" as="geometry" />
        </mxCell>
        <mxCell id="GR6JLFNSVhrEqINp1s79-44" value="Detect Issues" style="ellipse;whiteSpace=wrap;html=1;" parent="GR6JLFNSVhrEqINp1s79-40" vertex="1">
          <mxGeometry x="40" y="230" width="120" height="80" as="geometry" />
        </mxCell>
        <mxCell id="GR6JLFNSVhrEqINp1s79-41" value="&lt;b&gt;IoT System&lt;/b&gt;" style="text;html=1;align=center;verticalAlign=middle;resizable=0;points=[];autosize=1;strokeColor=none;fillColor=none;" parent="1" vertex="1">
          <mxGeometry x="-995" y="1048" width="90" height="30" as="geometry" />
        </mxCell>
        <mxCell id="GR6JLFNSVhrEqINp1s79-42" value="&lt;b&gt;ERP System&lt;/b&gt;" style="text;html=1;align=center;verticalAlign=middle;resizable=0;points=[];autosize=1;strokeColor=none;fillColor=none;" parent="1" vertex="1">
          <mxGeometry x="-715" y="1198" width="90" height="30" as="geometry" />
        </mxCell>
        <mxCell id="GR6JLFNSVhrEqINp1s79-47" style="edgeStyle=orthogonalEdgeStyle;rounded=0;orthogonalLoop=1;jettySize=auto;html=1;entryX=0.925;entryY=0.208;entryDx=0;entryDy=0;entryPerimeter=0;curved=1;" parent="1" source="GR6JLFNSVhrEqINp1s79-1" target="GR6JLFNSVhrEqINp1s79-43" edge="1">
          <mxGeometry relative="1" as="geometry" />
        </mxCell>
        <mxCell id="GR6JLFNSVhrEqINp1s79-52" style="edgeStyle=orthogonalEdgeStyle;rounded=0;orthogonalLoop=1;jettySize=auto;html=1;curved=1;" parent="1" source="GR6JLFNSVhrEqINp1s79-43" target="GR6JLFNSVhrEqINp1s79-48" edge="1">
          <mxGeometry relative="1" as="geometry" />
        </mxCell>
        <mxCell id="GR6JLFNSVhrEqINp1s79-53" value="Provide Data" style="edgeLabel;html=1;align=center;verticalAlign=middle;resizable=0;points=[];" parent="GR6JLFNSVhrEqINp1s79-52" vertex="1" connectable="0">
          <mxGeometry x="-0.1833" y="-19" relative="1" as="geometry">
            <mxPoint as="offset" />
          </mxGeometry>
        </mxCell>
        <mxCell id="GR6JLFNSVhrEqINp1s79-54" style="edgeStyle=entityRelationEdgeStyle;rounded=0;orthogonalLoop=1;jettySize=auto;html=1;exitX=1;exitY=1;exitDx=0;exitDy=0;entryX=0;entryY=0;entryDx=0;entryDy=0;" parent="1" source="GR6JLFNSVhrEqINp1s79-48" target="GR6JLFNSVhrEqINp1s79-26" edge="1">
          <mxGeometry relative="1" as="geometry">
            <Array as="points">
              <mxPoint x="-500" y="1360" />
              <mxPoint x="-440" y="1410" />
              <mxPoint x="-510" y="1340" />
            </Array>
          </mxGeometry>
        </mxCell>
        <mxCell id="GR6JLFNSVhrEqINp1s79-56" value="Provide Production Insights" style="edgeLabel;html=1;align=center;verticalAlign=middle;resizable=0;points=[];" parent="GR6JLFNSVhrEqINp1s79-54" vertex="1" connectable="0">
          <mxGeometry x="0.1464" y="1" relative="1" as="geometry">
            <mxPoint x="41" y="-53" as="offset" />
          </mxGeometry>
        </mxCell>
        <mxCell id="GIdBk4I58MVOMlwdYKfX-4" style="edgeStyle=orthogonalEdgeStyle;rounded=0;orthogonalLoop=1;jettySize=auto;html=1;entryX=0.5;entryY=0;entryDx=0;entryDy=0;" parent="1" source="GIdBk4I58MVOMlwdYKfX-1" target="GIdBk4I58MVOMlwdYKfX-3" edge="1">
          <mxGeometry relative="1" as="geometry" />
        </mxCell>
        <mxCell id="GIdBk4I58MVOMlwdYKfX-1" value="Start" style="strokeWidth=2;html=1;shape=mxgraph.flowchart.start_2;whiteSpace=wrap;" parent="1" vertex="1">
          <mxGeometry x="1530" y="80" width="45" height="45" as="geometry" />
        </mxCell>
        <mxCell id="GIdBk4I58MVOMlwdYKfX-6" style="edgeStyle=orthogonalEdgeStyle;rounded=0;orthogonalLoop=1;jettySize=auto;html=1;exitX=0;exitY=1;exitDx=0;exitDy=0;entryX=0.5;entryY=0;entryDx=0;entryDy=0;" parent="1" source="GIdBk4I58MVOMlwdYKfX-3" target="GIdBk4I58MVOMlwdYKfX-5" edge="1">
          <mxGeometry relative="1" as="geometry" />
        </mxCell>
        <mxCell id="GIdBk4I58MVOMlwdYKfX-7" value="Start System&lt;div&gt;&lt;br&gt;&lt;/div&gt;" style="edgeLabel;html=1;align=center;verticalAlign=middle;resizable=0;points=[];" parent="GIdBk4I58MVOMlwdYKfX-6" vertex="1" connectable="0">
          <mxGeometry x="-0.0285" y="-4" relative="1" as="geometry">
            <mxPoint as="offset" />
          </mxGeometry>
        </mxCell>
        <mxCell id="GIdBk4I58MVOMlwdYKfX-3" value="System Initialization" style="rounded=1;whiteSpace=wrap;html=1;" parent="1" vertex="1">
          <mxGeometry x="1492.5" y="200" width="120" height="60" as="geometry" />
        </mxCell>
        <mxCell id="GIdBk4I58MVOMlwdYKfX-9" style="edgeStyle=orthogonalEdgeStyle;rounded=0;orthogonalLoop=1;jettySize=auto;html=1;exitX=0;exitY=1;exitDx=0;exitDy=0;entryX=0.5;entryY=0;entryDx=0;entryDy=0;" parent="1" source="GIdBk4I58MVOMlwdYKfX-5" target="GIdBk4I58MVOMlwdYKfX-8" edge="1">
          <mxGeometry relative="1" as="geometry" />
        </mxCell>
        <mxCell id="GIdBk4I58MVOMlwdYKfX-10" value="User authenticated" style="edgeLabel;html=1;align=center;verticalAlign=middle;resizable=0;points=[];" parent="GIdBk4I58MVOMlwdYKfX-9" vertex="1" connectable="0">
          <mxGeometry x="-0.0222" y="-2" relative="1" as="geometry">
            <mxPoint as="offset" />
          </mxGeometry>
        </mxCell>
        <mxCell id="GIdBk4I58MVOMlwdYKfX-5" value="Dashboard Login" style="rounded=1;whiteSpace=wrap;html=1;" parent="1" vertex="1">
          <mxGeometry x="1360" y="315" width="120" height="60" as="geometry" />
        </mxCell>
        <mxCell id="GIdBk4I58MVOMlwdYKfX-12" style="edgeStyle=orthogonalEdgeStyle;rounded=0;orthogonalLoop=1;jettySize=auto;html=1;exitX=0.75;exitY=1;exitDx=0;exitDy=0;entryX=0;entryY=0.25;entryDx=0;entryDy=0;" parent="1" source="GIdBk4I58MVOMlwdYKfX-8" target="GIdBk4I58MVOMlwdYKfX-11" edge="1">
          <mxGeometry relative="1" as="geometry" />
        </mxCell>
        <mxCell id="GIdBk4I58MVOMlwdYKfX-13" value="Anomaly identified" style="edgeLabel;html=1;align=center;verticalAlign=middle;resizable=0;points=[];" parent="GIdBk4I58MVOMlwdYKfX-12" vertex="1" connectable="0">
          <mxGeometry x="-0.1754" y="2" relative="1" as="geometry">
            <mxPoint as="offset" />
          </mxGeometry>
        </mxCell>
        <mxCell id="GIdBk4I58MVOMlwdYKfX-15" style="edgeStyle=orthogonalEdgeStyle;rounded=0;orthogonalLoop=1;jettySize=auto;html=1;exitX=1;exitY=1;exitDx=0;exitDy=0;entryX=0;entryY=0.25;entryDx=0;entryDy=0;" parent="1" source="GIdBk4I58MVOMlwdYKfX-8" target="GIdBk4I58MVOMlwdYKfX-14" edge="1">
          <mxGeometry relative="1" as="geometry" />
        </mxCell>
        <mxCell id="GIdBk4I58MVOMlwdYKfX-16" value="Data unvailable" style="edgeLabel;html=1;align=center;verticalAlign=middle;resizable=0;points=[];" parent="GIdBk4I58MVOMlwdYKfX-15" vertex="1" connectable="0">
          <mxGeometry x="0.2362" y="-2" relative="1" as="geometry">
            <mxPoint as="offset" />
          </mxGeometry>
        </mxCell>
        <mxCell id="GIdBk4I58MVOMlwdYKfX-8" value="Data Monitoring" style="rounded=1;whiteSpace=wrap;html=1;" parent="1" vertex="1">
          <mxGeometry x="1241" y="425" width="120" height="60" as="geometry" />
        </mxCell>
        <mxCell id="GIdBk4I58MVOMlwdYKfX-20" style="edgeStyle=orthogonalEdgeStyle;rounded=0;orthogonalLoop=1;jettySize=auto;html=1;exitX=0.75;exitY=1;exitDx=0;exitDy=0;entryX=0.5;entryY=0;entryDx=0;entryDy=0;" parent="1" source="GIdBk4I58MVOMlwdYKfX-11" target="GIdBk4I58MVOMlwdYKfX-19" edge="1">
          <mxGeometry relative="1" as="geometry" />
        </mxCell>
        <mxCell id="GIdBk4I58MVOMlwdYKfX-21" value="Trigger anomaly alert" style="edgeLabel;html=1;align=center;verticalAlign=middle;resizable=0;points=[];" parent="GIdBk4I58MVOMlwdYKfX-20" vertex="1" connectable="0">
          <mxGeometry x="-0.1579" y="3" relative="1" as="geometry">
            <mxPoint as="offset" />
          </mxGeometry>
        </mxCell>
        <mxCell id="GIdBk4I58MVOMlwdYKfX-11" value="Anomaly Detection" style="rounded=1;whiteSpace=wrap;html=1;" parent="1" vertex="1">
          <mxGeometry x="1360" y="555" width="120" height="60" as="geometry" />
        </mxCell>
        <mxCell id="GIdBk4I58MVOMlwdYKfX-17" style="edgeStyle=orthogonalEdgeStyle;rounded=0;orthogonalLoop=1;jettySize=auto;html=1;exitX=0.5;exitY=0;exitDx=0;exitDy=0;entryX=0.75;entryY=1;entryDx=0;entryDy=0;" parent="1" source="GIdBk4I58MVOMlwdYKfX-14" target="GIdBk4I58MVOMlwdYKfX-3" edge="1">
          <mxGeometry relative="1" as="geometry">
            <Array as="points">
              <mxPoint x="1583" y="470" />
              <mxPoint x="1583" y="365" />
            </Array>
          </mxGeometry>
        </mxCell>
        <mxCell id="GIdBk4I58MVOMlwdYKfX-18" value="Restart system" style="edgeLabel;html=1;align=center;verticalAlign=middle;resizable=0;points=[];" parent="GIdBk4I58MVOMlwdYKfX-17" vertex="1" connectable="0">
          <mxGeometry x="0.0797" y="-2" relative="1" as="geometry">
            <mxPoint as="offset" />
          </mxGeometry>
        </mxCell>
        <mxCell id="GIdBk4I58MVOMlwdYKfX-14" value="Anomaly Detection" style="rounded=1;whiteSpace=wrap;html=1;" parent="1" vertex="1">
          <mxGeometry x="1520" y="470" width="120" height="60" as="geometry" />
        </mxCell>
        <mxCell id="GIdBk4I58MVOMlwdYKfX-23" style="edgeStyle=orthogonalEdgeStyle;rounded=0;orthogonalLoop=1;jettySize=auto;html=1;exitX=0;exitY=1;exitDx=0;exitDy=0;entryX=0.825;entryY=-0.033;entryDx=0;entryDy=0;curved=1;entryPerimeter=0;" parent="1" source="GIdBk4I58MVOMlwdYKfX-19" target="GIdBk4I58MVOMlwdYKfX-22" edge="1">
          <mxGeometry relative="1" as="geometry">
            <Array as="points">
              <mxPoint x="1390" y="790" />
              <mxPoint x="1360" y="790" />
              <mxPoint x="1360" y="770" />
              <mxPoint x="1319" y="770" />
            </Array>
          </mxGeometry>
        </mxCell>
        <mxCell id="GIdBk4I58MVOMlwdYKfX-24" value="User intervenes" style="edgeLabel;html=1;align=center;verticalAlign=middle;resizable=0;points=[];" parent="GIdBk4I58MVOMlwdYKfX-23" vertex="1" connectable="0">
          <mxGeometry x="-0.3489" y="-1" relative="1" as="geometry">
            <mxPoint x="12" y="1" as="offset" />
          </mxGeometry>
        </mxCell>
        <mxCell id="GIdBk4I58MVOMlwdYKfX-19" value="Anomaly Detection" style="rounded=1;whiteSpace=wrap;html=1;" parent="1" vertex="1">
          <mxGeometry x="1390" y="710" width="120" height="60" as="geometry" />
        </mxCell>
        <mxCell id="GIdBk4I58MVOMlwdYKfX-22" value="Anomaly Detection" style="rounded=1;whiteSpace=wrap;html=1;" parent="1" vertex="1">
          <mxGeometry x="1220" y="790" width="120" height="60" as="geometry" />
        </mxCell>
        <mxCell id="GIdBk4I58MVOMlwdYKfX-25" style="edgeStyle=orthogonalEdgeStyle;rounded=0;orthogonalLoop=1;jettySize=auto;html=1;exitX=0.25;exitY=0;exitDx=0;exitDy=0;entryX=0.075;entryY=1.033;entryDx=0;entryDy=0;entryPerimeter=0;" parent="1" source="GIdBk4I58MVOMlwdYKfX-22" target="GIdBk4I58MVOMlwdYKfX-8" edge="1">
          <mxGeometry relative="1" as="geometry" />
        </mxCell>
        <mxCell id="GIdBk4I58MVOMlwdYKfX-26" value="Corrective action completed" style="edgeLabel;html=1;align=center;verticalAlign=middle;resizable=0;points=[];" parent="GIdBk4I58MVOMlwdYKfX-25" vertex="1" connectable="0">
          <mxGeometry x="0.1418" y="3" relative="1" as="geometry">
            <mxPoint as="offset" />
          </mxGeometry>
        </mxCell>
        <mxCell id="GIdBk4I58MVOMlwdYKfX-27" value="" style="ellipse;html=1;shape=endState;fillColor=#000000;strokeColor=#ff0000;" parent="1" vertex="1">
          <mxGeometry x="1100" y="440" width="30" height="30" as="geometry" />
        </mxCell>
        <mxCell id="GIdBk4I58MVOMlwdYKfX-28" style="edgeStyle=orthogonalEdgeStyle;rounded=0;orthogonalLoop=1;jettySize=auto;html=1;entryX=0.767;entryY=0.433;entryDx=0;entryDy=0;entryPerimeter=0;" parent="1" source="GIdBk4I58MVOMlwdYKfX-8" target="GIdBk4I58MVOMlwdYKfX-27" edge="1">
          <mxGeometry relative="1" as="geometry" />
        </mxCell>
        <mxCell id="GIdBk4I58MVOMlwdYKfX-29" value="End monitoring" style="edgeLabel;html=1;align=center;verticalAlign=middle;resizable=0;points=[];" parent="GIdBk4I58MVOMlwdYKfX-28" vertex="1" connectable="0">
          <mxGeometry x="0.1334" y="1" relative="1" as="geometry">
            <mxPoint as="offset" />
          </mxGeometry>
        </mxCell>
        <mxCell id="GIdBk4I58MVOMlwdYKfX-30" value="Manufacturing Manager" style="shape=umlActor;verticalLabelPosition=bottom;verticalAlign=top;html=1;" parent="1" vertex="1">
          <mxGeometry x="1370" y="1620" width="30" height="60" as="geometry" />
        </mxCell>
        <mxCell id="GIdBk4I58MVOMlwdYKfX-32" value="Manufacturing Manager" style="shape=umlActor;verticalLabelPosition=bottom;verticalAlign=top;html=1;" parent="1" vertex="1">
          <mxGeometry x="1370" y="2040" width="30" height="60" as="geometry" />
        </mxCell>
        <mxCell id="GIdBk4I58MVOMlwdYKfX-33" value="" style="endArrow=none;dashed=1;html=1;rounded=0;exitX=0.5;exitY=0;exitDx=0;exitDy=0;exitPerimeter=0;" parent="1" source="GIdBk4I58MVOMlwdYKfX-32" target="GIdBk4I58MVOMlwdYKfX-30" edge="1">
          <mxGeometry width="50" height="50" relative="1" as="geometry">
            <mxPoint x="1470" y="1940" as="sourcePoint" />
            <mxPoint x="1520" y="1890" as="targetPoint" />
          </mxGeometry>
        </mxCell>
        <mxCell id="GIdBk4I58MVOMlwdYKfX-34" value="Dashboard" style="rounded=1;whiteSpace=wrap;html=1;" parent="1" vertex="1">
          <mxGeometry x="1600" y="1635" width="90" height="30" as="geometry" />
        </mxCell>
        <mxCell id="GIdBk4I58MVOMlwdYKfX-35" value="Dashboard" style="rounded=1;whiteSpace=wrap;html=1;" parent="1" vertex="1">
          <mxGeometry x="1600" y="2055" width="90" height="30" as="geometry" />
        </mxCell>
        <mxCell id="GIdBk4I58MVOMlwdYKfX-36" value="IoT System" style="rounded=1;whiteSpace=wrap;html=1;" parent="1" vertex="1">
          <mxGeometry x="1920" y="2055" width="90" height="30" as="geometry" />
        </mxCell>
        <mxCell id="GIdBk4I58MVOMlwdYKfX-37" value="AlertSystem" style="rounded=1;whiteSpace=wrap;html=1;" parent="1" vertex="1">
          <mxGeometry x="2068" y="2055" width="90" height="30" as="geometry" />
        </mxCell>
        <mxCell id="GIdBk4I58MVOMlwdYKfX-38" value="IoT System" style="rounded=1;whiteSpace=wrap;html=1;" parent="1" vertex="1">
          <mxGeometry x="1920" y="1635" width="90" height="30" as="geometry" />
        </mxCell>
        <mxCell id="GIdBk4I58MVOMlwdYKfX-39" value="AlertSystem" style="rounded=1;whiteSpace=wrap;html=1;" parent="1" vertex="1">
          <mxGeometry x="2068" y="1635" width="90" height="30" as="geometry" />
        </mxCell>
        <mxCell id="GIdBk4I58MVOMlwdYKfX-40" value="" style="endArrow=none;dashed=1;html=1;rounded=0;entryX=0.589;entryY=1.033;entryDx=0;entryDy=0;entryPerimeter=0;" parent="1" target="GIdBk4I58MVOMlwdYKfX-39" edge="1">
          <mxGeometry width="50" height="50" relative="1" as="geometry">
            <mxPoint x="2121" y="2050" as="sourcePoint" />
            <mxPoint x="2120" y="1680" as="targetPoint" />
          </mxGeometry>
        </mxCell>
        <mxCell id="GIdBk4I58MVOMlwdYKfX-42" value="" style="endArrow=none;dashed=1;html=1;rounded=0;entryX=0.589;entryY=1.033;entryDx=0;entryDy=0;entryPerimeter=0;" parent="1" edge="1">
          <mxGeometry width="50" height="50" relative="1" as="geometry">
            <mxPoint x="1964.5" y="2055" as="sourcePoint" />
            <mxPoint x="1964.5" y="1671" as="targetPoint" />
          </mxGeometry>
        </mxCell>
        <mxCell id="GIdBk4I58MVOMlwdYKfX-43" value="" style="endArrow=none;dashed=1;html=1;rounded=0;entryX=0.589;entryY=1.033;entryDx=0;entryDy=0;entryPerimeter=0;" parent="1" edge="1">
          <mxGeometry width="50" height="50" relative="1" as="geometry">
            <mxPoint x="1644.5" y="2049" as="sourcePoint" />
            <mxPoint x="1644.5" y="1665" as="targetPoint" />
          </mxGeometry>
        </mxCell>
        <mxCell id="GIdBk4I58MVOMlwdYKfX-45" value="" style="endArrow=classic;html=1;rounded=0;" parent="1" edge="1">
          <mxGeometry width="50" height="50" relative="1" as="geometry">
            <mxPoint x="1390" y="1730" as="sourcePoint" />
            <mxPoint x="1640" y="1730" as="targetPoint" />
          </mxGeometry>
        </mxCell>
        <mxCell id="GIdBk4I58MVOMlwdYKfX-54" value="Log in to the dashboard" style="edgeLabel;html=1;align=center;verticalAlign=middle;resizable=0;points=[];" parent="GIdBk4I58MVOMlwdYKfX-45" vertex="1" connectable="0">
          <mxGeometry x="-0.336" y="3" relative="1" as="geometry">
            <mxPoint x="-3" y="-10" as="offset" />
          </mxGeometry>
        </mxCell>
        <mxCell id="GIdBk4I58MVOMlwdYKfX-46" value="" style="endArrow=classic;html=1;rounded=0;" parent="1" edge="1">
          <mxGeometry width="50" height="50" relative="1" as="geometry">
            <mxPoint x="1390" y="1790" as="sourcePoint" />
            <mxPoint x="1640" y="1790" as="targetPoint" />
          </mxGeometry>
        </mxCell>
        <mxCell id="GIdBk4I58MVOMlwdYKfX-56" value="Request real-time production data" style="edgeLabel;html=1;align=center;verticalAlign=middle;resizable=0;points=[];" parent="GIdBk4I58MVOMlwdYKfX-46" vertex="1" connectable="0">
          <mxGeometry x="-0.048" y="2" relative="1" as="geometry">
            <mxPoint x="1" y="-8" as="offset" />
          </mxGeometry>
        </mxCell>
        <mxCell id="GIdBk4I58MVOMlwdYKfX-47" value="" style="endArrow=classic;html=1;rounded=0;" parent="1" edge="1">
          <mxGeometry width="50" height="50" relative="1" as="geometry">
            <mxPoint x="1390" y="1890" as="sourcePoint" />
            <mxPoint x="1640" y="1890" as="targetPoint" />
          </mxGeometry>
        </mxCell>
        <mxCell id="GIdBk4I58MVOMlwdYKfX-58" value="Analyze metrics" style="edgeLabel;html=1;align=center;verticalAlign=middle;resizable=0;points=[];" parent="GIdBk4I58MVOMlwdYKfX-47" vertex="1" connectable="0">
          <mxGeometry x="0.064" y="2" relative="1" as="geometry">
            <mxPoint x="-3" y="-8" as="offset" />
          </mxGeometry>
        </mxCell>
        <mxCell id="GIdBk4I58MVOMlwdYKfX-48" value="" style="endArrow=classic;html=1;rounded=0;" parent="1" edge="1">
          <mxGeometry width="50" height="50" relative="1" as="geometry">
            <mxPoint x="1390" y="1960" as="sourcePoint" />
            <mxPoint x="1640" y="1960" as="targetPoint" />
          </mxGeometry>
        </mxCell>
        <mxCell id="GIdBk4I58MVOMlwdYKfX-53" value="Take corrective actions" style="edgeLabel;html=1;align=center;verticalAlign=middle;resizable=0;points=[];" parent="GIdBk4I58MVOMlwdYKfX-48" vertex="1" connectable="0">
          <mxGeometry x="-0.368" y="-3" relative="1" as="geometry">
            <mxPoint y="-13" as="offset" />
          </mxGeometry>
        </mxCell>
        <mxCell id="GIdBk4I58MVOMlwdYKfX-49" value="" style="endArrow=classic;html=1;rounded=0;" parent="1" edge="1">
          <mxGeometry width="50" height="50" relative="1" as="geometry">
            <mxPoint x="1640" y="1760" as="sourcePoint" />
            <mxPoint x="1390" y="1760" as="targetPoint" />
          </mxGeometry>
        </mxCell>
        <mxCell id="GIdBk4I58MVOMlwdYKfX-55" value="Confirm login success" style="edgeLabel;html=1;align=center;verticalAlign=middle;resizable=0;points=[];" parent="GIdBk4I58MVOMlwdYKfX-49" vertex="1" connectable="0">
          <mxGeometry x="0.128" y="1" relative="1" as="geometry">
            <mxPoint y="-11" as="offset" />
          </mxGeometry>
        </mxCell>
        <mxCell id="GIdBk4I58MVOMlwdYKfX-50" value="" style="endArrow=classic;html=1;rounded=0;" parent="1" edge="1">
          <mxGeometry width="50" height="50" relative="1" as="geometry">
            <mxPoint x="1640" y="1860" as="sourcePoint" />
            <mxPoint x="1390" y="1860" as="targetPoint" />
          </mxGeometry>
        </mxCell>
        <mxCell id="GIdBk4I58MVOMlwdYKfX-57" value="Display production metrics" style="edgeLabel;html=1;align=center;verticalAlign=middle;resizable=0;points=[];" parent="GIdBk4I58MVOMlwdYKfX-50" vertex="1" connectable="0">
          <mxGeometry x="0.384" y="-3" relative="1" as="geometry">
            <mxPoint x="13" y="-7" as="offset" />
          </mxGeometry>
        </mxCell>
        <mxCell id="GIdBk4I58MVOMlwdYKfX-51" value="" style="endArrow=classic;html=1;rounded=0;" parent="1" edge="1">
          <mxGeometry width="50" height="50" relative="1" as="geometry">
            <mxPoint x="1640" y="2030" as="sourcePoint" />
            <mxPoint x="1390" y="2030" as="targetPoint" />
          </mxGeometry>
        </mxCell>
        <mxCell id="GIdBk4I58MVOMlwdYKfX-52" value="Update metrics and status" style="edgeLabel;html=1;align=center;verticalAlign=middle;resizable=0;points=[];" parent="GIdBk4I58MVOMlwdYKfX-51" vertex="1" connectable="0">
          <mxGeometry x="0.216" y="3" relative="1" as="geometry">
            <mxPoint x="5" y="-13" as="offset" />
          </mxGeometry>
        </mxCell>
        <mxCell id="GIdBk4I58MVOMlwdYKfX-59" value="" style="endArrow=classic;html=1;rounded=0;" parent="1" edge="1">
          <mxGeometry width="50" height="50" relative="1" as="geometry">
            <mxPoint x="2120" y="1930" as="sourcePoint" />
            <mxPoint x="1390" y="1930" as="targetPoint" />
          </mxGeometry>
        </mxCell>
        <mxCell id="GIdBk4I58MVOMlwdYKfX-60" value="Notify anomaly detected" style="edgeLabel;html=1;align=center;verticalAlign=middle;resizable=0;points=[];" parent="GIdBk4I58MVOMlwdYKfX-59" vertex="1" connectable="0">
          <mxGeometry x="0.8575" y="-3" relative="1" as="geometry">
            <mxPoint x="18" y="-7" as="offset" />
          </mxGeometry>
        </mxCell>
        <mxCell id="GIdBk4I58MVOMlwdYKfX-61" value="" style="endArrow=classic;html=1;rounded=0;" parent="1" edge="1">
          <mxGeometry width="50" height="50" relative="1" as="geometry">
            <mxPoint x="1640" y="1820" as="sourcePoint" />
            <mxPoint x="1960" y="1820" as="targetPoint" />
          </mxGeometry>
        </mxCell>
        <mxCell id="GIdBk4I58MVOMlwdYKfX-62" value="Fetch data from IoT sensors" style="edgeLabel;html=1;align=center;verticalAlign=middle;resizable=0;points=[];" parent="GIdBk4I58MVOMlwdYKfX-61" vertex="1" connectable="0">
          <mxGeometry x="-0.4375" y="4" relative="1" as="geometry">
            <mxPoint x="10" y="-6" as="offset" />
          </mxGeometry>
        </mxCell>
        <mxCell id="GIdBk4I58MVOMlwdYKfX-63" value="" style="endArrow=classic;html=1;rounded=0;" parent="1" edge="1">
          <mxGeometry width="50" height="50" relative="1" as="geometry">
            <mxPoint x="1964" y="1850" as="sourcePoint" />
            <mxPoint x="1650" y="1850" as="targetPoint" />
          </mxGeometry>
        </mxCell>
        <mxCell id="GIdBk4I58MVOMlwdYKfX-64" value="Send production data" style="edgeLabel;html=1;align=center;verticalAlign=middle;resizable=0;points=[];" parent="GIdBk4I58MVOMlwdYKfX-63" vertex="1" connectable="0">
          <mxGeometry x="-0.4323" relative="1" as="geometry">
            <mxPoint y="-10" as="offset" />
          </mxGeometry>
        </mxCell>
        <mxCell id="GIdBk4I58MVOMlwdYKfX-65" value="" style="endArrow=classic;html=1;rounded=0;" parent="1" edge="1">
          <mxGeometry width="50" height="50" relative="1" as="geometry">
            <mxPoint x="1650" y="1910" as="sourcePoint" />
            <mxPoint x="2120" y="1910" as="targetPoint" />
          </mxGeometry>
        </mxCell>
        <mxCell id="GIdBk4I58MVOMlwdYKfX-66" value="Trigger alert for anomaly(if any)" style="edgeLabel;html=1;align=center;verticalAlign=middle;resizable=0;points=[];" parent="GIdBk4I58MVOMlwdYKfX-65" vertex="1" connectable="0">
          <mxGeometry x="-0.1548" y="-1" relative="1" as="geometry">
            <mxPoint y="-11" as="offset" />
          </mxGeometry>
        </mxCell>
        <mxCell id="GIdBk4I58MVOMlwdYKfX-67" value="" style="endArrow=classic;html=1;rounded=0;" parent="1" edge="1">
          <mxGeometry width="50" height="50" relative="1" as="geometry">
            <mxPoint x="1960" y="2010" as="sourcePoint" />
            <mxPoint x="1650" y="2010" as="targetPoint" />
          </mxGeometry>
        </mxCell>
        <mxCell id="GIdBk4I58MVOMlwdYKfX-68" value="Confirm issue resolved" style="edgeLabel;html=1;align=center;verticalAlign=middle;resizable=0;points=[];" parent="GIdBk4I58MVOMlwdYKfX-67" vertex="1" connectable="0">
          <mxGeometry x="0.1935" y="3" relative="1" as="geometry">
            <mxPoint x="15" y="-13" as="offset" />
          </mxGeometry>
        </mxCell>
        <mxCell id="GIdBk4I58MVOMlwdYKfX-69" value="" style="endArrow=classic;html=1;rounded=0;" parent="1" edge="1">
          <mxGeometry width="50" height="50" relative="1" as="geometry">
            <mxPoint x="1650" y="1980" as="sourcePoint" />
            <mxPoint x="1960" y="1980" as="targetPoint" />
          </mxGeometry>
        </mxCell>
        <mxCell id="GIdBk4I58MVOMlwdYKfX-70" value="Send commands to resolve issue" style="edgeLabel;html=1;align=center;verticalAlign=middle;resizable=0;points=[];" parent="GIdBk4I58MVOMlwdYKfX-69" vertex="1" connectable="0">
          <mxGeometry x="0.3613" relative="1" as="geometry">
            <mxPoint x="-11" y="-10" as="offset" />
          </mxGeometry>
        </mxCell>
        <mxCell id="F2OK5EJASMcpurN7bOXC-2" value="" style="fontStyle=1;align=center;verticalAlign=top;childLayout=stackLayout;horizontal=1;horizontalStack=0;resizeParent=1;resizeParentMax=0;resizeLast=0;marginBottom=0;" parent="1" vertex="1">
          <mxGeometry x="2690" y="460" width="140" height="40" as="geometry" />
        </mxCell>
        <mxCell id="F2OK5EJASMcpurN7bOXC-3" value="&lt;font style=&quot;font-size: 14px;&quot;&gt;Dashboard&lt;/font&gt;" style="html=1;align=left;spacingLeft=4;verticalAlign=top;strokeColor=none;fillColor=none;whiteSpace=wrap;" parent="F2OK5EJASMcpurN7bOXC-2" vertex="1">
          <mxGeometry width="140" height="40" as="geometry" />
        </mxCell>
        <mxCell id="F2OK5EJASMcpurN7bOXC-4" value="" style="shape=module;jettyWidth=10;jettyHeight=4;" parent="F2OK5EJASMcpurN7bOXC-3" vertex="1">
          <mxGeometry x="1" width="16" height="20" relative="1" as="geometry">
            <mxPoint x="-25" y="9" as="offset" />
          </mxGeometry>
        </mxCell>
        <mxCell id="F2OK5EJASMcpurN7bOXC-11" value="&lt;font style=&quot;font-size: 14px;&quot;&gt;Alert System&lt;/font&gt;" style="html=1;align=left;spacingLeft=4;verticalAlign=top;strokeColor=default;fillColor=none;whiteSpace=wrap;" parent="1" vertex="1">
          <mxGeometry x="2895" y="570" width="185" height="80" as="geometry" />
        </mxCell>
        <mxCell id="F2OK5EJASMcpurN7bOXC-12" value="" style="shape=module;jettyWidth=10;jettyHeight=4;" parent="F2OK5EJASMcpurN7bOXC-11" vertex="1">
          <mxGeometry x="1" width="16" height="20" relative="1" as="geometry">
            <mxPoint x="-25" y="9" as="offset" />
          </mxGeometry>
        </mxCell>
        <mxCell id="F2OK5EJASMcpurN7bOXC-13" value="" style="fontStyle=1;align=center;verticalAlign=top;childLayout=stackLayout;horizontal=1;horizontalStack=0;resizeParent=1;resizeParentMax=0;resizeLast=0;marginBottom=0;" parent="1" vertex="1">
          <mxGeometry x="2580" y="585" width="140" height="40" as="geometry" />
        </mxCell>
        <mxCell id="F2OK5EJASMcpurN7bOXC-14" value="&lt;font style=&quot;font-size: 14px;&quot;&gt;IoT System&lt;/font&gt;" style="html=1;align=left;spacingLeft=4;verticalAlign=top;strokeColor=none;fillColor=none;whiteSpace=wrap;" parent="F2OK5EJASMcpurN7bOXC-13" vertex="1">
          <mxGeometry width="140" height="40" as="geometry" />
        </mxCell>
        <mxCell id="F2OK5EJASMcpurN7bOXC-15" value="" style="shape=module;jettyWidth=10;jettyHeight=4;" parent="F2OK5EJASMcpurN7bOXC-14" vertex="1">
          <mxGeometry x="1" width="16" height="20" relative="1" as="geometry">
            <mxPoint x="-25" y="9" as="offset" />
          </mxGeometry>
        </mxCell>
        <mxCell id="F2OK5EJASMcpurN7bOXC-16" value="" style="fontStyle=1;align=center;verticalAlign=top;childLayout=stackLayout;horizontal=1;horizontalStack=0;resizeParent=1;resizeParentMax=0;resizeLast=0;marginBottom=0;" parent="1" vertex="1">
          <mxGeometry x="2570" y="760" width="160" height="40" as="geometry" />
        </mxCell>
        <mxCell id="F2OK5EJASMcpurN7bOXC-17" value="&lt;font style=&quot;font-size: 14px;&quot;&gt;Data Storage&lt;/font&gt;" style="html=1;align=left;spacingLeft=4;verticalAlign=top;strokeColor=none;fillColor=none;whiteSpace=wrap;" parent="F2OK5EJASMcpurN7bOXC-16" vertex="1">
          <mxGeometry width="160" height="40" as="geometry" />
        </mxCell>
        <mxCell id="F2OK5EJASMcpurN7bOXC-18" value="" style="shape=module;jettyWidth=10;jettyHeight=4;" parent="F2OK5EJASMcpurN7bOXC-17" vertex="1">
          <mxGeometry x="1" width="16" height="20" relative="1" as="geometry">
            <mxPoint x="-25" y="9" as="offset" />
          </mxGeometry>
        </mxCell>
        <mxCell id="F2OK5EJASMcpurN7bOXC-19" value="" style="fontStyle=1;align=center;verticalAlign=top;childLayout=stackLayout;horizontal=1;horizontalStack=0;resizeParent=1;resizeParentMax=0;resizeLast=0;marginBottom=0;" parent="1" vertex="1">
          <mxGeometry x="2880" y="740" width="210" height="60" as="geometry" />
        </mxCell>
        <mxCell id="F2OK5EJASMcpurN7bOXC-20" value="&lt;font style=&quot;font-size: 14px;&quot;&gt;Production Machinery&lt;/font&gt;" style="html=1;align=left;spacingLeft=4;verticalAlign=top;strokeColor=none;fillColor=none;whiteSpace=wrap;" parent="F2OK5EJASMcpurN7bOXC-19" vertex="1">
          <mxGeometry width="210" height="60" as="geometry" />
        </mxCell>
        <mxCell id="F2OK5EJASMcpurN7bOXC-21" value="" style="shape=module;jettyWidth=10;jettyHeight=4;" parent="F2OK5EJASMcpurN7bOXC-20" vertex="1">
          <mxGeometry x="1" width="16" height="20" relative="1" as="geometry">
            <mxPoint x="-25" y="9" as="offset" />
          </mxGeometry>
        </mxCell>
        <mxCell id="F2OK5EJASMcpurN7bOXC-33" value="Server" style="verticalAlign=top;align=left;shape=cube;size=10;direction=south;fontStyle=0;html=1;boundedLbl=1;spacingLeft=5;whiteSpace=wrap;" parent="1" vertex="1">
          <mxGeometry x="2500" y="1180" width="340" height="200" as="geometry" />
        </mxCell>
        <mxCell id="F2OK5EJASMcpurN7bOXC-35" value="Cloud" style="verticalAlign=top;align=left;shape=cube;size=10;direction=south;fontStyle=0;html=1;boundedLbl=1;spacingLeft=5;whiteSpace=wrap;" parent="1" vertex="1">
          <mxGeometry x="3080" y="1200" width="280" height="180" as="geometry" />
        </mxCell>
        <mxCell id="F2OK5EJASMcpurN7bOXC-36" value="User Device" style="verticalAlign=top;align=left;shape=cube;size=10;direction=south;fontStyle=0;html=1;boundedLbl=1;spacingLeft=5;whiteSpace=wrap;" parent="1" vertex="1">
          <mxGeometry x="2610" y="1520" width="220" height="140" as="geometry" />
        </mxCell>
        <mxCell id="F2OK5EJASMcpurN7bOXC-37" value="&lt;font style=&quot;font-size: 14px;&quot;&gt;Database&lt;/font&gt;" style="html=1;outlineConnect=0;whiteSpace=wrap;fillColor=light-dark(#AFFFAF, #121212);shape=mxgraph.archimate3.application;appType=artifact;archiType=square;" parent="1" vertex="1">
          <mxGeometry x="3145" y="1270" width="150" height="50" as="geometry" />
        </mxCell>
        <mxCell id="F2OK5EJASMcpurN7bOXC-38" value="&lt;font style=&quot;font-size: 14px;&quot;&gt;Web Dashboard&lt;/font&gt;" style="html=1;outlineConnect=0;whiteSpace=wrap;fillColor=light-dark(#AFFFAF, #121212);shape=mxgraph.archimate3.application;appType=artifact;archiType=square;" parent="1" vertex="1">
          <mxGeometry x="2640" y="1570" width="150" height="75" as="geometry" />
        </mxCell>
        <mxCell id="F2OK5EJASMcpurN7bOXC-43" style="rounded=0;orthogonalLoop=1;jettySize=auto;html=1;" parent="1" source="F2OK5EJASMcpurN7bOXC-39" target="F2OK5EJASMcpurN7bOXC-38" edge="1">
          <mxGeometry relative="1" as="geometry" />
        </mxCell>
        <mxCell id="F2OK5EJASMcpurN7bOXC-48" value="Alert Delivery" style="edgeLabel;html=1;align=center;verticalAlign=middle;resizable=0;points=[];" parent="F2OK5EJASMcpurN7bOXC-43" vertex="1" connectable="0">
          <mxGeometry x="-0.1196" relative="1" as="geometry">
            <mxPoint as="offset" />
          </mxGeometry>
        </mxCell>
        <mxCell id="F2OK5EJASMcpurN7bOXC-39" value="&lt;font style=&quot;font-size: 14px;&quot;&gt;Alert Manager&lt;/font&gt;" style="html=1;outlineConnect=0;whiteSpace=wrap;fillColor=light-dark(#AFFFAF, #121212);shape=mxgraph.archimate3.application;appType=artifact;archiType=square;" parent="1" vertex="1">
          <mxGeometry x="2580" y="1310" width="190" height="35" as="geometry" />
        </mxCell>
        <mxCell id="F2OK5EJASMcpurN7bOXC-40" value="&lt;font style=&quot;font-size: 14px;&quot;&gt;IoT Data Prcessor&lt;/font&gt;" style="html=1;outlineConnect=0;whiteSpace=wrap;fillColor=light-dark(#AFFFAF, #121212);shape=mxgraph.archimate3.application;appType=artifact;archiType=square;" parent="1" vertex="1">
          <mxGeometry x="2580" y="1220" width="190" height="40" as="geometry" />
        </mxCell>
        <mxCell id="F2OK5EJASMcpurN7bOXC-41" style="edgeStyle=orthogonalEdgeStyle;rounded=0;orthogonalLoop=1;jettySize=auto;html=1;exitX=0.5;exitY=1;exitDx=0;exitDy=0;exitPerimeter=0;entryX=0.5;entryY=0;entryDx=0;entryDy=0;entryPerimeter=0;" parent="1" source="F2OK5EJASMcpurN7bOXC-40" target="F2OK5EJASMcpurN7bOXC-39" edge="1">
          <mxGeometry relative="1" as="geometry" />
        </mxCell>
        <mxCell id="F2OK5EJASMcpurN7bOXC-47" value="Alert processing" style="edgeLabel;html=1;align=center;verticalAlign=middle;resizable=0;points=[];" parent="F2OK5EJASMcpurN7bOXC-41" vertex="1" connectable="0">
          <mxGeometry x="-0.24" y="-1" relative="1" as="geometry">
            <mxPoint as="offset" />
          </mxGeometry>
        </mxCell>
        <mxCell id="F2OK5EJASMcpurN7bOXC-42" style="rounded=0;orthogonalLoop=1;jettySize=auto;html=1;exitX=1;exitY=0.5;exitDx=0;exitDy=0;exitPerimeter=0;entryX=0;entryY=0.5;entryDx=0;entryDy=0;entryPerimeter=0;" parent="1" source="F2OK5EJASMcpurN7bOXC-40" target="F2OK5EJASMcpurN7bOXC-37" edge="1">
          <mxGeometry relative="1" as="geometry" />
        </mxCell>
        <mxCell id="F2OK5EJASMcpurN7bOXC-46" value="Data Storage" style="edgeLabel;html=1;align=center;verticalAlign=middle;resizable=0;points=[];" parent="F2OK5EJASMcpurN7bOXC-42" vertex="1" connectable="0">
          <mxGeometry x="0.1134" y="2" relative="1" as="geometry">
            <mxPoint as="offset" />
          </mxGeometry>
        </mxCell>
        <mxCell id="F2OK5EJASMcpurN7bOXC-44" style="rounded=0;orthogonalLoop=1;jettySize=auto;html=1;exitX=1;exitY=0.5;exitDx=0;exitDy=0;exitPerimeter=0;entryX=1;entryY=1;entryDx=0;entryDy=0;entryPerimeter=0;edgeStyle=orthogonalEdgeStyle;curved=1;" parent="1" source="F2OK5EJASMcpurN7bOXC-38" target="F2OK5EJASMcpurN7bOXC-40" edge="1">
          <mxGeometry relative="1" as="geometry">
            <Array as="points">
              <mxPoint x="2790" y="1570" />
              <mxPoint x="2900" y="1570" />
              <mxPoint x="2900" y="1260" />
            </Array>
          </mxGeometry>
        </mxCell>
        <mxCell id="F2OK5EJASMcpurN7bOXC-45" value="User Interactions" style="edgeLabel;html=1;align=center;verticalAlign=middle;resizable=0;points=[];" parent="F2OK5EJASMcpurN7bOXC-44" vertex="1" connectable="0">
          <mxGeometry x="-0.0621" y="-2" relative="1" as="geometry">
            <mxPoint x="-7" y="-11" as="offset" />
          </mxGeometry>
        </mxCell>
        <mxCell id="F2OK5EJASMcpurN7bOXC-59" value="" style="rounded=0;orthogonalLoop=1;jettySize=auto;html=1;endArrow=halfCircle;endFill=0;endSize=6;strokeWidth=1;sketch=0;entryX=0.439;entryY=0.967;entryDx=0;entryDy=0;entryPerimeter=0;exitX=0.281;exitY=0;exitDx=0;exitDy=0;exitPerimeter=0;" parent="1" source="F2OK5EJASMcpurN7bOXC-17" target="F2OK5EJASMcpurN7bOXC-61" edge="1">
          <mxGeometry relative="1" as="geometry">
            <mxPoint x="2610" y="740" as="sourcePoint" />
            <mxPoint x="2610" y="690" as="targetPoint" />
          </mxGeometry>
        </mxCell>
        <mxCell id="F2OK5EJASMcpurN7bOXC-60" value="" style="rounded=0;orthogonalLoop=1;jettySize=auto;html=1;endArrow=oval;endFill=0;sketch=0;sourcePerimeterSpacing=0;targetPerimeterSpacing=0;endSize=10;exitX=0.25;exitY=1;exitDx=0;exitDy=0;" parent="1" source="F2OK5EJASMcpurN7bOXC-14" target="F2OK5EJASMcpurN7bOXC-61" edge="1">
          <mxGeometry relative="1" as="geometry">
            <mxPoint x="2590" y="650" as="sourcePoint" />
          </mxGeometry>
        </mxCell>
        <mxCell id="F2OK5EJASMcpurN7bOXC-63" value="Store Metrics" style="edgeLabel;html=1;align=center;verticalAlign=middle;resizable=0;points=[];" parent="F2OK5EJASMcpurN7bOXC-60" vertex="1" connectable="0">
          <mxGeometry x="0.2803" relative="1" as="geometry">
            <mxPoint x="5" as="offset" />
          </mxGeometry>
        </mxCell>
        <mxCell id="F2OK5EJASMcpurN7bOXC-61" value="" style="ellipse;whiteSpace=wrap;html=1;align=center;aspect=fixed;fillColor=none;strokeColor=none;resizable=0;perimeter=centerPerimeter;rotatable=0;allowArrows=0;points=[];outlineConnect=1;" parent="1" vertex="1">
          <mxGeometry x="2610" y="685" width="10" height="10" as="geometry" />
        </mxCell>
        <mxCell id="F2OK5EJASMcpurN7bOXC-66" value="" style="rounded=0;orthogonalLoop=1;jettySize=auto;html=1;endArrow=halfCircle;endFill=0;endSize=6;strokeWidth=1;sketch=0;entryX=0.439;entryY=0.967;entryDx=0;entryDy=0;entryPerimeter=0;exitX=0.281;exitY=0;exitDx=0;exitDy=0;exitPerimeter=0;" parent="1" target="F2OK5EJASMcpurN7bOXC-69" edge="1">
          <mxGeometry relative="1" as="geometry">
            <mxPoint x="2705" y="585" as="sourcePoint" />
            <mxPoint x="2700" y="515" as="targetPoint" />
          </mxGeometry>
        </mxCell>
        <mxCell id="F2OK5EJASMcpurN7bOXC-67" value="" style="rounded=0;orthogonalLoop=1;jettySize=auto;html=1;endArrow=oval;endFill=0;sketch=0;sourcePerimeterSpacing=0;targetPerimeterSpacing=0;endSize=10;exitX=0.107;exitY=1;exitDx=0;exitDy=0;exitPerimeter=0;" parent="1" source="F2OK5EJASMcpurN7bOXC-3" target="F2OK5EJASMcpurN7bOXC-69" edge="1">
          <mxGeometry relative="1" as="geometry">
            <mxPoint x="2705" y="450" as="sourcePoint" />
          </mxGeometry>
        </mxCell>
        <mxCell id="F2OK5EJASMcpurN7bOXC-68" value="Fetch Data" style="edgeLabel;html=1;align=center;verticalAlign=middle;resizable=0;points=[];" parent="F2OK5EJASMcpurN7bOXC-67" vertex="1" connectable="0">
          <mxGeometry x="0.2803" relative="1" as="geometry">
            <mxPoint x="5" y="-9" as="offset" />
          </mxGeometry>
        </mxCell>
        <mxCell id="F2OK5EJASMcpurN7bOXC-69" value="" style="ellipse;whiteSpace=wrap;html=1;align=center;aspect=fixed;fillColor=none;strokeColor=none;resizable=0;perimeter=centerPerimeter;rotatable=0;allowArrows=0;points=[];outlineConnect=1;" parent="1" vertex="1">
          <mxGeometry x="2700" y="540" width="10" height="10" as="geometry" />
        </mxCell>
        <mxCell id="F2OK5EJASMcpurN7bOXC-70" value="" style="rounded=0;orthogonalLoop=1;jettySize=auto;html=1;endArrow=halfCircle;endFill=0;endSize=6;strokeWidth=1;sketch=0;entryX=0.439;entryY=0.967;entryDx=0;entryDy=0;entryPerimeter=0;exitX=0;exitY=0;exitDx=0;exitDy=0;" parent="1" source="F2OK5EJASMcpurN7bOXC-20" target="F2OK5EJASMcpurN7bOXC-73" edge="1">
          <mxGeometry relative="1" as="geometry">
            <mxPoint x="2720" y="757.5" as="sourcePoint" />
            <mxPoint x="2715" y="687.5" as="targetPoint" />
          </mxGeometry>
        </mxCell>
        <mxCell id="F2OK5EJASMcpurN7bOXC-71" value="" style="rounded=0;orthogonalLoop=1;jettySize=auto;html=1;endArrow=oval;endFill=0;sketch=0;sourcePerimeterSpacing=0;targetPerimeterSpacing=0;endSize=10;exitX=1;exitY=1;exitDx=0;exitDy=0;entryX=0.217;entryY=0.689;entryDx=0;entryDy=0;entryPerimeter=0;" parent="1" source="F2OK5EJASMcpurN7bOXC-14" target="F2OK5EJASMcpurN7bOXC-73" edge="1">
          <mxGeometry relative="1" as="geometry">
            <mxPoint x="2720" y="622.5" as="sourcePoint" />
          </mxGeometry>
        </mxCell>
        <mxCell id="F2OK5EJASMcpurN7bOXC-72" value="Collect Metrics" style="edgeLabel;html=1;align=center;verticalAlign=middle;resizable=0;points=[];" parent="F2OK5EJASMcpurN7bOXC-71" vertex="1" connectable="0">
          <mxGeometry x="0.2803" relative="1" as="geometry">
            <mxPoint x="-2" y="-4" as="offset" />
          </mxGeometry>
        </mxCell>
        <mxCell id="F2OK5EJASMcpurN7bOXC-73" value="" style="ellipse;whiteSpace=wrap;html=1;align=center;aspect=fixed;fillColor=none;strokeColor=none;resizable=0;perimeter=centerPerimeter;rotatable=0;allowArrows=0;points=[];outlineConnect=1;" parent="1" vertex="1">
          <mxGeometry x="2780" y="665" width="10" height="10" as="geometry" />
        </mxCell>
        <mxCell id="F2OK5EJASMcpurN7bOXC-80" value="" style="rounded=0;orthogonalLoop=1;jettySize=auto;html=1;endArrow=halfCircle;endFill=0;endSize=6;strokeWidth=1;sketch=0;entryX=0.439;entryY=0.967;entryDx=0;entryDy=0;entryPerimeter=0;exitX=1;exitY=0.5;exitDx=0;exitDy=0;" parent="1" source="F2OK5EJASMcpurN7bOXC-3" target="F2OK5EJASMcpurN7bOXC-83" edge="1">
          <mxGeometry relative="1" as="geometry">
            <mxPoint x="2880" y="500" as="sourcePoint" />
            <mxPoint x="3000" y="480" as="targetPoint" />
          </mxGeometry>
        </mxCell>
        <mxCell id="F2OK5EJASMcpurN7bOXC-81" value="" style="rounded=0;orthogonalLoop=1;jettySize=auto;html=1;endArrow=oval;endFill=0;sketch=0;sourcePerimeterSpacing=0;targetPerimeterSpacing=0;endSize=10;exitX=0.5;exitY=0;exitDx=0;exitDy=0;" parent="1" source="F2OK5EJASMcpurN7bOXC-11" target="F2OK5EJASMcpurN7bOXC-83" edge="1">
          <mxGeometry relative="1" as="geometry">
            <mxPoint x="3005" y="415" as="sourcePoint" />
          </mxGeometry>
        </mxCell>
        <mxCell id="F2OK5EJASMcpurN7bOXC-82" value="Notify User" style="edgeLabel;html=1;align=center;verticalAlign=middle;resizable=0;points=[];" parent="F2OK5EJASMcpurN7bOXC-81" vertex="1" connectable="0">
          <mxGeometry x="0.2803" relative="1" as="geometry">
            <mxPoint x="-77" y="-32" as="offset" />
          </mxGeometry>
        </mxCell>
        <mxCell id="F2OK5EJASMcpurN7bOXC-83" value="" style="ellipse;whiteSpace=wrap;html=1;align=center;aspect=fixed;fillColor=none;strokeColor=none;resizable=0;perimeter=centerPerimeter;rotatable=0;allowArrows=0;points=[];outlineConnect=1;" parent="1" vertex="1">
          <mxGeometry x="2982.5" y="475" width="10" height="10" as="geometry" />
        </mxCell>
        <mxCell id="F2OK5EJASMcpurN7bOXC-84" value="" style="rounded=0;orthogonalLoop=1;jettySize=auto;html=1;endArrow=halfCircle;endFill=0;endSize=6;strokeWidth=1;sketch=0;entryX=0.439;entryY=0.967;entryDx=0;entryDy=0;entryPerimeter=0;exitX=0;exitY=0;exitDx=0;exitDy=0;" parent="1" source="F2OK5EJASMcpurN7bOXC-11" target="F2OK5EJASMcpurN7bOXC-87" edge="1">
          <mxGeometry relative="1" as="geometry">
            <mxPoint x="2875" y="760" as="sourcePoint" />
            <mxPoint x="2870" y="690" as="targetPoint" />
          </mxGeometry>
        </mxCell>
        <mxCell id="F2OK5EJASMcpurN7bOXC-85" value="" style="rounded=0;orthogonalLoop=1;jettySize=auto;html=1;endArrow=oval;endFill=0;sketch=0;sourcePerimeterSpacing=0;targetPerimeterSpacing=0;endSize=10;exitX=1;exitY=1;exitDx=0;exitDy=0;" parent="1" source="F2OK5EJASMcpurN7bOXC-3" target="F2OK5EJASMcpurN7bOXC-87" edge="1">
          <mxGeometry relative="1" as="geometry">
            <mxPoint x="2875" y="625" as="sourcePoint" />
          </mxGeometry>
        </mxCell>
        <mxCell id="F2OK5EJASMcpurN7bOXC-86" value="Trigger Alert" style="edgeLabel;html=1;align=center;verticalAlign=middle;resizable=0;points=[];" parent="F2OK5EJASMcpurN7bOXC-85" vertex="1" connectable="0">
          <mxGeometry x="0.2803" relative="1" as="geometry">
            <mxPoint x="-2" y="-2" as="offset" />
          </mxGeometry>
        </mxCell>
        <mxCell id="F2OK5EJASMcpurN7bOXC-87" value="" style="ellipse;whiteSpace=wrap;html=1;align=center;aspect=fixed;fillColor=none;strokeColor=none;resizable=0;perimeter=centerPerimeter;rotatable=0;allowArrows=0;points=[];outlineConnect=1;" parent="1" vertex="1">
          <mxGeometry x="2860" y="530" width="10" height="10" as="geometry" />
        </mxCell>
        <mxCell id="F2OK5EJASMcpurN7bOXC-88" value="&lt;font style=&quot;font-size: 14px;&quot;&gt;Monitoring System&lt;/font&gt;" style="shape=folder;fontStyle=1;tabWidth=200;tabHeight=30;tabPosition=left;html=1;boundedLbl=1;labelInHeader=1;container=1;collapsible=0;whiteSpace=wrap;" parent="1" vertex="1">
          <mxGeometry x="2580" y="1950" width="670" height="530" as="geometry" />
        </mxCell>
        <mxCell id="F2OK5EJASMcpurN7bOXC-89" value="" style="html=1;strokeColor=none;resizeWidth=1;resizeHeight=1;fillColor=none;part=1;connectable=0;allowArrows=0;deletable=0;whiteSpace=wrap;" parent="F2OK5EJASMcpurN7bOXC-88" vertex="1">
          <mxGeometry width="670" height="371" relative="1" as="geometry">
            <mxPoint y="30" as="offset" />
          </mxGeometry>
        </mxCell>
        <mxCell id="F2OK5EJASMcpurN7bOXC-90" value="&lt;font style=&quot;font-size: 14px;&quot;&gt;Processing&lt;/font&gt;" style="shape=folder;fontStyle=1;tabWidth=110;tabHeight=30;tabPosition=left;html=1;boundedLbl=1;labelInHeader=1;container=1;collapsible=0;whiteSpace=wrap;" parent="F2OK5EJASMcpurN7bOXC-88" vertex="1">
          <mxGeometry x="50" y="60" width="190" height="230" as="geometry" />
        </mxCell>
        <mxCell id="F2OK5EJASMcpurN7bOXC-91" value="" style="html=1;strokeColor=none;resizeWidth=1;resizeHeight=1;fillColor=none;part=1;connectable=0;allowArrows=0;deletable=0;whiteSpace=wrap;" parent="F2OK5EJASMcpurN7bOXC-90" vertex="1">
          <mxGeometry width="190" height="161" relative="1" as="geometry">
            <mxPoint y="30" as="offset" />
          </mxGeometry>
        </mxCell>
        <mxCell id="F2OK5EJASMcpurN7bOXC-102" style="edgeStyle=orthogonalEdgeStyle;rounded=0;orthogonalLoop=1;jettySize=auto;html=1;entryX=0.5;entryY=0;entryDx=0;entryDy=0;dashed=1;dashPattern=8 8;" parent="F2OK5EJASMcpurN7bOXC-90" source="F2OK5EJASMcpurN7bOXC-96" target="F2OK5EJASMcpurN7bOXC-99" edge="1">
          <mxGeometry relative="1" as="geometry">
            <Array as="points">
              <mxPoint x="90" y="120" />
              <mxPoint x="90" y="120" />
            </Array>
          </mxGeometry>
        </mxCell>
        <mxCell id="F2OK5EJASMcpurN7bOXC-103" value="Trigger Alerts" style="edgeLabel;html=1;align=center;verticalAlign=middle;resizable=0;points=[];" parent="F2OK5EJASMcpurN7bOXC-102" vertex="1" connectable="0">
          <mxGeometry x="-0.0944" y="2" relative="1" as="geometry">
            <mxPoint x="38" y="3" as="offset" />
          </mxGeometry>
        </mxCell>
        <mxCell id="F2OK5EJASMcpurN7bOXC-96" value="IoT Data Processor" style="swimlane;fontStyle=1;align=center;verticalAlign=middle;childLayout=stackLayout;horizontal=1;startSize=29;horizontalStack=0;resizeParent=1;resizeParentMax=0;resizeLast=0;collapsible=0;marginBottom=0;html=1;whiteSpace=wrap;" parent="F2OK5EJASMcpurN7bOXC-90" vertex="1">
          <mxGeometry x="20" y="50" width="140" height="40" as="geometry" />
        </mxCell>
        <mxCell id="F2OK5EJASMcpurN7bOXC-99" value="Alert Manager" style="swimlane;fontStyle=1;align=center;verticalAlign=middle;childLayout=stackLayout;horizontal=1;startSize=29;horizontalStack=0;resizeParent=1;resizeParentMax=0;resizeLast=0;collapsible=0;marginBottom=0;html=1;whiteSpace=wrap;" parent="F2OK5EJASMcpurN7bOXC-90" vertex="1">
          <mxGeometry x="20" y="150" width="140" height="40" as="geometry" />
        </mxCell>
        <mxCell id="F2OK5EJASMcpurN7bOXC-92" value="&lt;font style=&quot;font-size: 14px;&quot;&gt;Data Managment&lt;/font&gt;" style="shape=folder;fontStyle=1;tabWidth=140;tabHeight=20;tabPosition=left;html=1;boundedLbl=1;labelInHeader=1;container=1;collapsible=0;whiteSpace=wrap;" parent="F2OK5EJASMcpurN7bOXC-88" vertex="1">
          <mxGeometry x="430" y="110" width="190" height="120" as="geometry" />
        </mxCell>
        <mxCell id="F2OK5EJASMcpurN7bOXC-93" value="" style="html=1;strokeColor=none;resizeWidth=1;resizeHeight=1;fillColor=none;part=1;connectable=0;allowArrows=0;deletable=0;whiteSpace=wrap;" parent="F2OK5EJASMcpurN7bOXC-92" vertex="1">
          <mxGeometry width="190" height="84" relative="1" as="geometry">
            <mxPoint y="30" as="offset" />
          </mxGeometry>
        </mxCell>
        <mxCell id="F2OK5EJASMcpurN7bOXC-100" value="Database" style="swimlane;fontStyle=1;align=center;verticalAlign=middle;childLayout=stackLayout;horizontal=1;startSize=29;horizontalStack=0;resizeParent=1;resizeParentMax=0;resizeLast=0;collapsible=0;marginBottom=0;html=1;whiteSpace=wrap;" parent="F2OK5EJASMcpurN7bOXC-92" vertex="1">
          <mxGeometry x="25" y="50" width="140" height="40" as="geometry" />
        </mxCell>
        <mxCell id="F2OK5EJASMcpurN7bOXC-94" value="&lt;span style=&quot;font-size: 14px;&quot;&gt;User Interface&lt;/span&gt;" style="shape=folder;fontStyle=1;tabWidth=140;tabHeight=20;tabPosition=left;html=1;boundedLbl=1;labelInHeader=1;container=1;collapsible=0;whiteSpace=wrap;" parent="F2OK5EJASMcpurN7bOXC-88" vertex="1">
          <mxGeometry x="230" y="380" width="190" height="120" as="geometry" />
        </mxCell>
        <mxCell id="F2OK5EJASMcpurN7bOXC-95" value="" style="html=1;strokeColor=none;resizeWidth=1;resizeHeight=1;fillColor=none;part=1;connectable=0;allowArrows=0;deletable=0;whiteSpace=wrap;" parent="F2OK5EJASMcpurN7bOXC-94" vertex="1">
          <mxGeometry width="190" height="84" relative="1" as="geometry">
            <mxPoint y="30" as="offset" />
          </mxGeometry>
        </mxCell>
        <mxCell id="F2OK5EJASMcpurN7bOXC-101" value="Dashboard" style="swimlane;fontStyle=1;align=center;verticalAlign=middle;childLayout=stackLayout;horizontal=1;startSize=29;horizontalStack=0;resizeParent=1;resizeParentMax=0;resizeLast=0;collapsible=0;marginBottom=0;html=1;whiteSpace=wrap;" parent="F2OK5EJASMcpurN7bOXC-94" vertex="1">
          <mxGeometry x="30" y="50" width="140" height="40" as="geometry" />
        </mxCell>
        <mxCell id="F2OK5EJASMcpurN7bOXC-104" style="edgeStyle=orthogonalEdgeStyle;rounded=0;orthogonalLoop=1;jettySize=auto;html=1;exitX=0.5;exitY=1;exitDx=0;exitDy=0;entryX=0;entryY=0.5;entryDx=0;entryDy=0;dashed=1;dashPattern=8 8;" parent="F2OK5EJASMcpurN7bOXC-88" source="F2OK5EJASMcpurN7bOXC-99" target="F2OK5EJASMcpurN7bOXC-101" edge="1">
          <mxGeometry relative="1" as="geometry" />
        </mxCell>
        <mxCell id="F2OK5EJASMcpurN7bOXC-110" value="Notify User" style="edgeLabel;html=1;align=center;verticalAlign=middle;resizable=0;points=[];" parent="F2OK5EJASMcpurN7bOXC-104" vertex="1" connectable="0">
          <mxGeometry x="-0.4865" y="-1" relative="1" as="geometry">
            <mxPoint as="offset" />
          </mxGeometry>
        </mxCell>
        <mxCell id="F2OK5EJASMcpurN7bOXC-105" style="edgeStyle=orthogonalEdgeStyle;rounded=0;orthogonalLoop=1;jettySize=auto;html=1;exitX=0.75;exitY=0;exitDx=0;exitDy=0;entryX=1;entryY=0.75;entryDx=0;entryDy=0;dashed=1;dashPattern=8 8;" parent="F2OK5EJASMcpurN7bOXC-88" source="F2OK5EJASMcpurN7bOXC-101" target="F2OK5EJASMcpurN7bOXC-96" edge="1">
          <mxGeometry relative="1" as="geometry">
            <Array as="points">
              <mxPoint x="380" y="430" />
              <mxPoint x="380" y="140" />
            </Array>
          </mxGeometry>
        </mxCell>
        <mxCell id="F2OK5EJASMcpurN7bOXC-109" value="Fetch Data" style="edgeLabel;html=1;align=center;verticalAlign=middle;resizable=0;points=[];" parent="F2OK5EJASMcpurN7bOXC-105" vertex="1" connectable="0">
          <mxGeometry x="-0.167" relative="1" as="geometry">
            <mxPoint as="offset" />
          </mxGeometry>
        </mxCell>
        <mxCell id="F2OK5EJASMcpurN7bOXC-107" style="edgeStyle=orthogonalEdgeStyle;rounded=0;orthogonalLoop=1;jettySize=auto;html=1;exitX=0.75;exitY=0;exitDx=0;exitDy=0;entryX=0.918;entryY=0.033;entryDx=0;entryDy=0;entryPerimeter=0;dashed=1;dashPattern=8 8;" parent="F2OK5EJASMcpurN7bOXC-88" source="F2OK5EJASMcpurN7bOXC-96" target="F2OK5EJASMcpurN7bOXC-100" edge="1">
          <mxGeometry relative="1" as="geometry">
            <Array as="points">
              <mxPoint x="175" y="70" />
              <mxPoint x="584" y="70" />
            </Array>
          </mxGeometry>
        </mxCell>
        <mxCell id="F2OK5EJASMcpurN7bOXC-108" value="Store Metrics" style="edgeLabel;html=1;align=center;verticalAlign=middle;resizable=0;points=[];" parent="F2OK5EJASMcpurN7bOXC-107" vertex="1" connectable="0">
          <mxGeometry x="-0.1472" y="-1" relative="1" as="geometry">
            <mxPoint as="offset" />
          </mxGeometry>
        </mxCell>
        <mxCell id="F2OK5EJASMcpurN7bOXC-111" value="&lt;b&gt;&lt;font style=&quot;font-size: 26px;&quot;&gt;Deployment Diagram&lt;/font&gt;&lt;/b&gt;" style="rounded=0;whiteSpace=wrap;html=1;" parent="1" vertex="1">
          <mxGeometry x="2570" y="1100" width="560" height="40" as="geometry" />
        </mxCell>
        <mxCell id="F2OK5EJASMcpurN7bOXC-112" value="&lt;b&gt;&lt;font style=&quot;font-size: 26px;&quot;&gt;Component Diagram&lt;/font&gt;&lt;/b&gt;" style="rounded=0;whiteSpace=wrap;html=1;" parent="1" vertex="1">
          <mxGeometry x="2540" y="350" width="560" height="40" as="geometry" />
        </mxCell>
        <mxCell id="F2OK5EJASMcpurN7bOXC-113" value="&lt;b&gt;&lt;font style=&quot;font-size: 26px;&quot;&gt;State Diagram&lt;/font&gt;&lt;/b&gt;" style="rounded=0;whiteSpace=wrap;html=1;" parent="1" vertex="1">
          <mxGeometry x="1180" y="10" width="560" height="40" as="geometry" />
        </mxCell>
        <mxCell id="F2OK5EJASMcpurN7bOXC-114" value="&lt;b&gt;&lt;font style=&quot;font-size: 26px;&quot;&gt;Interaction Diagram&lt;/font&gt;&lt;/b&gt;" style="rounded=0;whiteSpace=wrap;html=1;" parent="1" vertex="1">
          <mxGeometry x="1480" y="1510" width="560" height="40" as="geometry" />
        </mxCell>
        <mxCell id="F2OK5EJASMcpurN7bOXC-115" value="&lt;b&gt;&lt;font style=&quot;font-size: 26px;&quot;&gt;UseCase Diagram&lt;/font&gt;&lt;/b&gt;" style="rounded=0;whiteSpace=wrap;html=1;" parent="1" vertex="1">
          <mxGeometry x="-330" y="1635" width="560" height="40" as="geometry" />
        </mxCell>
        <mxCell id="F2OK5EJASMcpurN7bOXC-116" value="&lt;b&gt;&lt;font style=&quot;font-size: 26px;&quot;&gt;Class Diagram&lt;/font&gt;&lt;/b&gt;" style="rounded=0;whiteSpace=wrap;html=1;" parent="1" vertex="1">
          <mxGeometry x="-360" y="760" width="560" height="40" as="geometry" />
        </mxCell>
        <mxCell id="GbSDMGa-5-VjCog5myYC-6" style="edgeStyle=orthogonalEdgeStyle;rounded=0;orthogonalLoop=1;jettySize=auto;html=1;entryX=0;entryY=0.5;entryDx=0;entryDy=0;" edge="1" parent="1" source="GbSDMGa-5-VjCog5myYC-1" target="TRrzErzz80BEs_K_XsTW-3">
          <mxGeometry relative="1" as="geometry" />
        </mxCell>
        <mxCell id="GbSDMGa-5-VjCog5myYC-7" value="Notifies about alert" style="edgeLabel;html=1;align=center;verticalAlign=middle;resizable=0;points=[];" vertex="1" connectable="0" parent="GbSDMGa-5-VjCog5myYC-6">
          <mxGeometry x="-0.1907" y="2" relative="1" as="geometry">
            <mxPoint x="-2" y="-17" as="offset" />
          </mxGeometry>
        </mxCell>
        <mxCell id="GbSDMGa-5-VjCog5myYC-1" value="Alert System" style="swimlane;fontStyle=0;childLayout=stackLayout;horizontal=1;startSize=30;horizontalStack=0;resizeParent=1;resizeParentMax=0;resizeLast=0;collapsible=1;marginBottom=0;whiteSpace=wrap;html=1;" vertex="1" parent="1">
          <mxGeometry x="-500" y="-90" width="140" height="90" as="geometry" />
        </mxCell>
        <mxCell id="GbSDMGa-5-VjCog5myYC-2" value="generateAlert" style="text;strokeColor=none;fillColor=none;align=left;verticalAlign=middle;spacingLeft=4;spacingRight=4;overflow=hidden;points=[[0,0.5],[1,0.5]];portConstraint=eastwest;rotatable=0;whiteSpace=wrap;html=1;" vertex="1" parent="GbSDMGa-5-VjCog5myYC-1">
          <mxGeometry y="30" width="140" height="30" as="geometry" />
        </mxCell>
        <mxCell id="GbSDMGa-5-VjCog5myYC-3" value="notifyManager" style="text;strokeColor=none;fillColor=none;align=left;verticalAlign=middle;spacingLeft=4;spacingRight=4;overflow=hidden;points=[[0,0.5],[1,0.5]];portConstraint=eastwest;rotatable=0;whiteSpace=wrap;html=1;" vertex="1" parent="GbSDMGa-5-VjCog5myYC-1">
          <mxGeometry y="60" width="140" height="30" as="geometry" />
        </mxCell>
        <mxCell id="GbSDMGa-5-VjCog5myYC-9" value="Database" style="swimlane;fontStyle=0;childLayout=stackLayout;horizontal=1;startSize=30;horizontalStack=0;resizeParent=1;resizeParentMax=0;resizeLast=0;collapsible=1;marginBottom=0;whiteSpace=wrap;html=1;" vertex="1" parent="1">
          <mxGeometry x="160" y="-160" width="140" height="60" as="geometry" />
        </mxCell>
        <mxCell id="GbSDMGa-5-VjCog5myYC-10" value="storeData" style="text;strokeColor=none;fillColor=none;align=left;verticalAlign=middle;spacingLeft=4;spacingRight=4;overflow=hidden;points=[[0,0.5],[1,0.5]];portConstraint=eastwest;rotatable=0;whiteSpace=wrap;html=1;" vertex="1" parent="GbSDMGa-5-VjCog5myYC-9">
          <mxGeometry y="30" width="140" height="30" as="geometry" />
        </mxCell>
        <mxCell id="GbSDMGa-5-VjCog5myYC-15" value="" style="swimlane;startSize=0;" vertex="1" parent="1">
          <mxGeometry x="-130" y="890" width="200" height="360" as="geometry" />
        </mxCell>
        <mxCell id="GbSDMGa-5-VjCog5myYC-16" style="edgeStyle=orthogonalEdgeStyle;rounded=0;orthogonalLoop=1;jettySize=auto;html=1;entryX=0.5;entryY=0;entryDx=0;entryDy=0;" edge="1" parent="GbSDMGa-5-VjCog5myYC-15" source="GbSDMGa-5-VjCog5myYC-18" target="GbSDMGa-5-VjCog5myYC-19">
          <mxGeometry relative="1" as="geometry" />
        </mxCell>
        <mxCell id="GbSDMGa-5-VjCog5myYC-17" value="Notifies Manager" style="edgeLabel;html=1;align=center;verticalAlign=middle;resizable=0;points=[];" vertex="1" connectable="0" parent="GbSDMGa-5-VjCog5myYC-16">
          <mxGeometry x="-0.0762" y="-1" relative="1" as="geometry">
            <mxPoint as="offset" />
          </mxGeometry>
        </mxCell>
        <mxCell id="GbSDMGa-5-VjCog5myYC-18" value="Generate Alerts" style="ellipse;whiteSpace=wrap;html=1;" vertex="1" parent="GbSDMGa-5-VjCog5myYC-15">
          <mxGeometry x="40" y="50" width="120" height="80" as="geometry" />
        </mxCell>
        <mxCell id="GbSDMGa-5-VjCog5myYC-19" value="Notify Manager" style="ellipse;whiteSpace=wrap;html=1;" vertex="1" parent="GbSDMGa-5-VjCog5myYC-15">
          <mxGeometry x="40" y="230" width="120" height="80" as="geometry" />
        </mxCell>
        <mxCell id="GbSDMGa-5-VjCog5myYC-21" value="&lt;b&gt;Alert System&lt;/b&gt;" style="text;html=1;align=center;verticalAlign=middle;resizable=0;points=[];autosize=1;strokeColor=none;fillColor=none;" vertex="1" parent="GbSDMGa-5-VjCog5myYC-15">
          <mxGeometry x="55" width="100" height="30" as="geometry" />
        </mxCell>
        <mxCell id="GbSDMGa-5-VjCog5myYC-24" style="edgeStyle=orthogonalEdgeStyle;rounded=0;orthogonalLoop=1;jettySize=auto;html=1;entryX=1;entryY=0.3333333333333333;entryDx=0;entryDy=0;entryPerimeter=0;curved=1;exitX=0;exitY=0.5;exitDx=0;exitDy=0;" edge="1" parent="1" source="GbSDMGa-5-VjCog5myYC-19">
          <mxGeometry relative="1" as="geometry">
            <mxPoint x="-70" y="1163" as="sourcePoint" />
            <mxPoint x="-410" y="963" as="targetPoint" />
            <Array as="points">
              <mxPoint x="-93" y="1160" />
              <mxPoint x="-93" y="1163" />
              <mxPoint x="-240" y="1163" />
              <mxPoint x="-240" y="963" />
            </Array>
          </mxGeometry>
        </mxCell>
        <mxCell id="GbSDMGa-5-VjCog5myYC-25" value="Recieve alerts" style="edgeLabel;html=1;align=center;verticalAlign=middle;resizable=0;points=[];" vertex="1" connectable="0" parent="GbSDMGa-5-VjCog5myYC-24">
          <mxGeometry x="0.0425" y="-1" relative="1" as="geometry">
            <mxPoint as="offset" />
          </mxGeometry>
        </mxCell>
        <mxCell id="GbSDMGa-5-VjCog5myYC-26" style="edgeStyle=orthogonalEdgeStyle;rounded=0;orthogonalLoop=1;jettySize=auto;html=1;entryX=1;entryY=0;entryDx=0;entryDy=0;" edge="1" parent="1" source="GbSDMGa-5-VjCog5myYC-18" target="GR6JLFNSVhrEqINp1s79-48">
          <mxGeometry relative="1" as="geometry">
            <Array as="points">
              <mxPoint x="-30" y="870" />
              <mxPoint x="-638" y="870" />
            </Array>
          </mxGeometry>
        </mxCell>
        <mxCell id="GbSDMGa-5-VjCog5myYC-27" value="Logs Alert Data" style="edgeLabel;html=1;align=center;verticalAlign=middle;resizable=0;points=[];" vertex="1" connectable="0" parent="GbSDMGa-5-VjCog5myYC-26">
          <mxGeometry x="-0.2344" y="-2" relative="1" as="geometry">
            <mxPoint as="offset" />
          </mxGeometry>
        </mxCell>
      </root>
    </mxGraphModel>
  </diagram>
</mxfile>
